<?xml version="1.0" encoding="UTF-8"?>
<svg id="Layer_1" xmlns="http://www.w3.org/2000/svg" version="1.1" viewBox="0 0 965.5 286.4">
  <!-- Generator: Adobe Illustrator 29.8.1, SVG Export Plug-In . SVG Version: 2.1.1 Build 2)  -->
  <defs>
    <style>
      .st0 {
        fill: #fff;
      }

      .st1 {
        fill: none;
        stroke: #000;
        stroke-miterlimit: 10;
      }

      .st2 {
        fill: #40853e;
      }

      .st3 {
        fill: #5ebb47;
      }
    </style>
  </defs>
  <path class="st0" d="M744.4,281.1h-77.8V8.7h77.8c21.5,0,38.9,17.4,38.9,38.9v59.5c0,15.6-7.4,26.1-19.5,29.6v.8c12.1,3.5,19.5,14,19.5,29.6v75.1c0,21.5-17.4,38.9-38.9,38.9ZM763.9,108.7v-62.7c.1-10.6-8.4-19.4-19.1-19.5-.1,0-.3,0-.4,0h-58.4v101.6h58.4c10.6.1,19.4-8.4,19.5-19.1,0-.1,0-.3,0-.4h0ZM763.9,243.8v-78.2c.1-10.6-8.4-19.4-19.1-19.5-.1,0-.3,0-.4,0h-58.4v117.1h58.4c10.6.1,19.4-8.4,19.5-19.1,0-.1,0-.3,0-.4h0Z"/>
  <path class="st0" d="M803.9,53c0-7.1,5.7-12.8,12.8-12.8,7.1,0,12.8,5.7,12.8,12.8s-5.7,12.8-12.8,12.8c-7.1,0-12.8-5.8-12.8-12.8ZM807.4,281.1V98.2h17.6v182.9h-17.6Z"/>
  <path class="st0" d="M932,281.1v-17.5h-.8c-3.9,11.7-13.2,17.5-28,17.5h-18.7c-19.2-.2-34.8-15.8-35-35v-112.9c.2-19.2,15.8-34.8,35-35h18.7c15.2,0,24.5,5.8,28,17.5h.8l-.8-17.5V8.7h17.5v272.5h-16.7ZM931.2,247.6v-116c0-9.6-7.7-17.5-17.4-17.5,0,0,0,0-.1,0h-29.2c-9.6.1-17.4,7.9-17.5,17.5v116c0,9.6,7.9,17.4,17.5,17.5h29.2c9.6,0,17.5-7.7,17.5-17.4,0,0,0-.1,0-.2h0Z"/>
  <path class="st0" d="M65.7,281.1L7.3,8.7h60.7l30.8,168.5,1.2,9.7,1.2-9.7L131.9,8.7h60.7l-58.4,272.4h-68.5Z"/>
  <path class="st0" d="M233.1,211.1v20.2c-.1.5.3,1.1.8,1.2.1,0,.3,0,.4,0h67.8v48.6h-84.1c-23,0-37.4-15.2-37.4-37.4v-109c0-22.2,14.4-37.4,37.4-37.4h59.5c22.2,0,37.4,15.2,37.4,37.4v76.3h-81.7ZM262.2,144.1c.1-.5-.3-1.1-.8-1.2-.1,0-.3,0-.4,0h-26.8c-.5-.1-1.1.3-1.2.8,0,.1,0,.3,0,.4v31.9h29.2v-31.9Z"/>
  <path class="st0" d="M390.7,146.8c-.5-.1-1.1.3-1.2.8,0,.1,0,.3,0,.4v133.1h-52.5V98.2h51.8v17.9h.8c2.7-12.1,16.4-18.7,30.4-18.7h16.4v49.4h-45.6Z"/>
  <path class="st0" d="M507.8,281.1c-22.2,0-37.4-15.2-37.4-37.4v-96.9h-27.2v-48.6h27.2v-54.5h52.5v54.5h35v48.6h-35v84.5c-.1.5.3,1.1.8,1.2.1,0,.2,0,.4,0h33.9v48.6h-50.2Z"/>
  <path class="st0" d="M578.7,281.1V98.2h52.5v182.9h-52.5Z"/>
  <line class="st1" x1="587.7" y1="108.6" x2="587.7" y2="257.2"/>
  <line class="st1" x1="593.4" y1="108.6" x2="593.4" y2="257.2"/>
  <line class="st1" x1="598.3" y1="108.6" x2="598.3" y2="257.2"/>
  <line class="st1" x1="603.3" y1="108.6" x2="603.3" y2="257.2"/>
  <line class="st1" x1="608.2" y1="108.6" x2="608.2" y2="257.2"/>
  <line class="st1" x1="613.2" y1="108.6" x2="613.2" y2="257.2"/>
  <line class="st1" x1="618.2" y1="108.6" x2="618.2" y2="257.2"/>
  <line class="st1" x1="623.1" y1="108.6" x2="623.1" y2="257.2"/>
  <rect class="st0" x="586.4" y="94.4" width="12" height="5.3"/>
  <rect class="st0" x="612.3" y="83.9" width="6.8" height="14.6"/>
  <rect class="st0" x="604.3" y="92.4" width="17.8" height="5.9"/>
  <polygon class="st2" points="575.7 64.4 638.1 64.4 635.4 68.3 578.5 67.8 575.7 64.4"/>
  <polygon class="st3" points="575.7 64.4 638.1 64.4 606.9 16.8 575.7 64.4"/>
</svg>