<svg xmlns="http://www.w3.org/2000/svg" viewBox="0 0 615 62"><title>winArtboard 1</title><rect x="282" y="27" width="43" height="6" style="stroke:#4d4d4d;stroke-miterlimit:10;stroke-width:2px"/><rect x="301.96" y="10" width="3.07" height="43"/><path d="M21.94,60.82.92,2H11.43l16.3,46.79L44,2H54.49L70.74,48.81,87,2H97.55l-21,58.8H65L49.26,16.74,33.48,60.82Z"/><path d="M112.75,2v58.8H102.24V2Z"/><path d="M134.25,60.82H123.74V2h10.51l44.18,45.6V2h10.51v58.8H178.43l-44.18-45.6Z"/><path d="M199.93,60.82V2H237.3a36.22,36.22,0,0,1,10.64,1.45A24.19,24.19,0,0,1,256,7.61a18.53,18.53,0,0,1,5.18,6.5A19.56,19.56,0,0,1,263,22.6V40.24a19.56,19.56,0,0,1-1.82,8.49,18.44,18.44,0,0,1-5.18,6.5,24.19,24.19,0,0,1-8.1,4.14,36.22,36.22,0,0,1-10.64,1.45Zm37.37-8.4q7.33,0,11.28-3.16t3.95-9V22.6a12.29,12.29,0,0,0-1-5.12,10.28,10.28,0,0,0-3-3.84,13.73,13.73,0,0,0-4.79-2.4,23.24,23.24,0,0,0-6.41-.82H210.44v42Z"/><path d="M335,52.42a6.92,6.92,0,0,1-.82,3.26,8.6,8.6,0,0,1-2.26,2.68,11.05,11.05,0,0,1-3.36,1.81,12.44,12.44,0,0,1-4.07.65h-42a12.44,12.44,0,0,1-4.07-.65,11.05,11.05,0,0,1-3.36-1.81,8.44,8.44,0,0,1-2.25-2.68,6.8,6.8,0,0,1-.82-3.26v-42a6.83,6.83,0,0,1,.82-3.26,8.26,8.26,0,0,1,2.25-2.66,11.74,11.74,0,0,1,3.36-1.81A12.19,12.19,0,0,1,282.48,2h42a12.19,12.19,0,0,1,4.07.67A11.74,11.74,0,0,1,331.9,4.5a8.42,8.42,0,0,1,2.26,2.66,7,7,0,0,1,.82,3.26Zm-52.5-42v42h42v-42Z"/><path d="M360.68,60.82,339.66,2h10.51l16.3,46.79L382.72,2h10.51l16.25,46.79L425.78,2h10.51l-21,58.8H403.74L388,16.74,372.21,60.82Z"/><path d="M439.33,2h57.73V4.56L455.38,52.42h41.68v8.4H437.85v-2.5l41.67-47.9H439.33Z"/><path d="M514.49,24.19a1.45,1.45,0,0,1-.16.65,1.74,1.74,0,0,1-.45.53,2,2,0,0,1-.66.35,2.37,2.37,0,0,1-.81.13H506.6a2.36,2.36,0,0,1-.8-.13,1.89,1.89,0,0,1-.66-.35,1.74,1.74,0,0,1-.45-.53,1.33,1.33,0,0,1-.16-.65V13.38h2.07v5.06a1.59,1.59,0,0,1,.19-.63,1.78,1.78,0,0,1,.45-.5,2.12,2.12,0,0,1,.65-.34,2.58,2.58,0,0,1,.8-.12h3.72a2.37,2.37,0,0,1,.81.13,2,2,0,0,1,.66.35,1.74,1.74,0,0,1,.45.53,1.45,1.45,0,0,1,.16.65Zm-7.89-5.68v5.68h5.81V18.51Z"/><path d="M517.09,29.49,519.45,25,515,16.85h2.19l3.29,6.2,3.29-6.2H526l-6.82,12.64Z"/><path d="M508.41,29V46h12.73v2.84H504.87V29Z"/><path d="M522.39,28.45h3.74v2.83h-3.74ZM526,34.12V48.83h-3.4V34.12Z"/><path d="M545.41,46.11a2.2,2.2,0,0,1-.27,1.06,2.83,2.83,0,0,1-.72.86,3.5,3.5,0,0,1-1.08.58,4.17,4.17,0,0,1-1.33.22h-9.48a4,4,0,0,1-1.31-.22,3.28,3.28,0,0,1-1.08-.58,2.72,2.72,0,0,1-.73-.86,2.2,2.2,0,0,1-.27-1.06V28.45h3.39v8.26a2.13,2.13,0,0,1,.31-1,2.75,2.75,0,0,1,.73-.83,3.44,3.44,0,0,1,1.06-.55,4,4,0,0,1,1.3-.2H542a4.16,4.16,0,0,1,1.33.21,3.72,3.72,0,0,1,1.08.58,2.83,2.83,0,0,1,.72.86,2.21,2.21,0,0,1,.27,1.07Zm-12.88-9.27v9.27H542V36.84Z"/><path d="M564,42.86H551.8v3.25H564v2.72H551.8a4.09,4.09,0,0,1-1.31-.22,3.5,3.5,0,0,1-1.08-.58,2.83,2.83,0,0,1-.72-.86,2.2,2.2,0,0,1-.27-1.06V36.84a2.21,2.21,0,0,1,.27-1.07,2.83,2.83,0,0,1,.72-.86,3.72,3.72,0,0,1,1.08-.58,4.09,4.09,0,0,1,1.31-.21h8.77a4.08,4.08,0,0,1,1.33.21,3.48,3.48,0,0,1,1.08.58,2.72,2.72,0,0,1,.73.86,2.21,2.21,0,0,1,.27,1.07Zm-12.18-6v3.3h8.77v-3.3Z"/><path d="M570.37,36.84v12H567V34.12h3.38v2.59a2.25,2.25,0,0,1,.31-1,2.79,2.79,0,0,1,.74-.83,3.33,3.33,0,0,1,1.06-.55,3.88,3.88,0,0,1,1.29-.2h3.61a4.06,4.06,0,0,1,1.32.21,3.72,3.72,0,0,1,1.08.58,2.76,2.76,0,0,1,.74.86,2.32,2.32,0,0,1,.26,1.07v2.48h-3.4V36.84Z"/><path d="M581.29,34.12h4.49V29.58h3.4v4.54h6v2.72h-6v9.27h6v2.72h-6a4,4,0,0,1-1.31-.22,3.44,3.44,0,0,1-1.09-.58,2.72,2.72,0,0,1-.73-.86,2.2,2.2,0,0,1-.27-1.06V36.84h-4.49Z"/><path d="M599.48,54.77l3.85-7.27-7.22-13.38h3.58l5.36,10.12,5.37-10.12H614L602.86,54.77Z"/></svg>