<svg xmlns="http://www.w3.org/2000/svg" viewBox="0 0 715.9 175.6"><defs><style>.cls-1{fill:#fff;}.cls-2{fill:#ffb82a;}</style></defs><title>CTA_marketing</title><g id="Layer_1" data-name="Layer 1"><path class="cls-1" d="M116.85,154.28l-1.5-3.43-2.28-.4v-4.14h14v4.14l-2.64.4,5.67,15.66h.18l4.27-15.66-2.82-.4v-4.14h9.11v4.14l-2.38.4-7.17,26.27H124.9l-6.11-16.9-5.46,16.9h-6.42l-8.23-26.27-2.07-.4v-4.14h13.6v4.14l-2.51.4,4.79,15.71h.18Z" transform="translate(-10.61 -2)"/><path class="cls-1" d="M151,154.5c5.81,0,10,3,10,9.81,0,.57,0,2-.08,2.64H148.09c.09,3.43.66,6.51,4.36,6.51,2.55,0,3.69-1.8,4.7-4.09l3.75,1.32c-1.41,4.53-4.93,6.91-9.73,6.91-7.31,0-11.49-4.49-11.49-11.13C139.68,158.81,144.48,154.5,151,154.5Zm1.8,9.46v-.88c0-4-.17-5.63-2.11-5.63-2.2,0-2.51,2.94-2.51,6.51Z" transform="translate(-10.61 -2)"/><path class="cls-1" d="M181.57,144.11v29l1.9.31v3.7H170.7v-3.7l2.73-.31V148.38l-2.68-.31v-3.61Zm14.88,29,2,.27v3.74h-13v-3.7l1.8-.26v-.22l-5.5-7.13v-1l7.44-5.85v-.26l-2.73-.18V155h10.78v3.61l-3.12.31-5.37,4.31Z" transform="translate(-10.61 -2)"/><path class="cls-1" d="M209.69,154.85,210,159h.31c1-2.33,2.64-4.53,7.3-4.53,4.18,0,6.91,1.85,6.91,7v11.57l2.68.31v3.74H214.71v-3.74l1.67-.31V162.64c0-2.11-.13-3.7-2.11-3.7s-3.39,1.1-3.39,4.67v9.46l1.89.31v3.74H200.05v-3.74l2.69-.31V159.16l-2.69-.31v-3.69Z" transform="translate(-10.61 -2)"/><path class="cls-1" d="M240.84,154.5c8.49,0,11.71,4.79,11.71,11.48,0,6.87-3.79,11.62-12,11.62-8.36,0-11.75-4.75-11.75-11.44C228.83,159.29,232.79,154.5,240.84,154.5Zm-.17,3c-2.73,0-3.31,2.55-3.31,8.36,0,6.38.58,8.71,3.39,8.71,2.64,0,3.26-2.5,3.26-8.4C244,159.91,243.53,157.49,240.67,157.49Z" transform="translate(-10.61 -2)"/><path class="cls-1" d="M253.2,155H265v3.65l-1.58.22,3.43,10.74H267l3-8.05-.79-2.69-1.94-.22V155h11.53v3.65l-2.07.22,3.57,10.79h.17l3-10.79-2.42-.22V155h8.66v3.65l-2.2.22-5.67,18.27h-6.34l-3.61-10.39h-.22l-3.83,10.39H262l-6.82-18.27-2-.22Z" transform="translate(-10.61 -2)"/><path class="cls-1" d="M309.3,144.11v10.43l-.22,3.79.27.08A6.77,6.77,0,0,1,316,154.5c4.18,0,6.91,1.85,6.91,7v11.57l2.68.31v3.74h-12.5v-3.74l1.68-.31V162.64c0-2.11-.14-3.7-2.12-3.7s-3.39,1.1-3.39,4.67v9.46l1.9.31v3.74H298.48v-3.74l2.68-.31V148.42l-2.68-.3v-3.7Z" transform="translate(-10.61 -2)"/><path class="cls-1" d="M339.27,154.5c8.49,0,11.7,4.79,11.7,11.48,0,6.87-3.78,11.62-12,11.62-8.36,0-11.75-4.75-11.75-11.44C327.25,159.29,331.21,154.5,339.27,154.5Zm-.18,3c-2.73,0-3.3,2.55-3.3,8.36,0,6.38.57,8.71,3.39,8.71,2.64,0,3.26-2.5,3.26-8.4C342.44,159.91,342,157.49,339.09,157.49Z" transform="translate(-10.61 -2)"/><path class="cls-1" d="M351.63,155h11.75v3.65l-1.58.22,3.43,10.74h.17l3-8.05-.8-2.69-1.93-.22V155H377.2v3.65l-2.07.22,3.56,10.79h.18l3-10.79-2.42-.22V155h8.67v3.65l-2.2.22-5.68,18.27H373.9l-3.61-10.39h-.22l-3.83,10.39h-5.81l-6.82-18.27-2-.22Z" transform="translate(-10.61 -2)"/><path class="cls-1" d="M399.33,158.9H396V155h3.3v-5.41l4.93-.88h3.21V155h6.47v3.92h-6.47v11.79c0,1.81.57,2.77,2,2.77,1.63,0,2.16-1.32,2.91-4.09l3,.79c-1,4.89-2.9,7.44-8.27,7.44-5,0-7.79-2-7.79-7.44Z" transform="translate(-10.61 -2)"/><path class="cls-1" d="M428.54,154.5c8.5,0,11.71,4.79,11.71,11.48,0,6.87-3.78,11.62-12,11.62-8.36,0-11.75-4.75-11.75-11.44C416.53,159.29,420.49,154.5,428.54,154.5Zm-.17,3c-2.73,0-3.3,2.55-3.3,8.36,0,6.38.57,8.71,3.39,8.71,2.64,0,3.25-2.5,3.25-8.4C431.71,159.91,431.23,157.49,428.37,157.49Z" transform="translate(-10.61 -2)"/><path class="cls-1" d="M460.49,151.55V155h14.83v18.18l3.34.3v3.66h-13.9v-3.61l2.42-.35V158.9h-6.69v14.21l2.68.4v3.61H449.49V173.6l2.86-.49V158.9h-2.56V155h2.56v-.31c0-7.26,4.57-11.57,12.71-11.57,6.25,0,8.59,3.12,8.59,5.77s-1.63,4-3.79,4c-2.46,0-3.65-1.46-3.65-3.3a3.69,3.69,0,0,1,.22-1.41l1.85-.27c.57-1.8-1.5-2.06-2.6-2.06C462.16,145.79,460.49,147.46,460.49,151.55Z" transform="translate(-10.61 -2)"/><path class="cls-1" d="M489.44,154.85l.31,4.18h.31c1-2.33,2.64-4.53,7.3-4.53,4.18,0,6.91,1.85,6.91,7v11.57l2.68.31v3.74H494.46v-3.74l1.67-.31V162.64c0-2.11-.13-3.7-2.11-3.7s-3.39,1.1-3.39,4.67v9.46l1.89.31v3.74H479.8v-3.74l2.69-.31V159.16l-2.69-.31v-3.69Z" transform="translate(-10.61 -2)"/><path class="cls-1" d="M532,173.07l2.64.31v3.74h-9.94l-.44-2.78h-.22c-.84,1.59-2.69,3.26-6.12,3.26-5.85,0-9.15-4-9.15-11.18s3.25-11.92,9.9-11.92a5.92,5.92,0,0,1,5.1,2.42l.14,0v-8.53l-3-.35v-3.53l11-.35Zm-8-4.53v-5.9c0-3-1.41-4.71-3.57-4.71-2.64,0-3.17,2.69-3.17,8.23,0,4.84.36,7.88,3.26,7.88C523.19,174,524.07,171.7,524.07,168.54Z" transform="translate(-10.61 -2)"/><path class="cls-1" d="M546.42,158.9h-3.3V155h3.3v-5.41l4.93-.88h3.21V155H561v3.92h-6.47v11.79c0,1.81.57,2.77,2,2.77,1.63,0,2.16-1.32,2.91-4.09l3,.79c-1,4.89-2.9,7.44-8.27,7.44-5,0-7.79-2-7.79-7.44Z" transform="translate(-10.61 -2)"/><path class="cls-1" d="M574.36,144.11v10.43l-.22,3.79.26.08a6.77,6.77,0,0,1,6.69-3.91c4.18,0,6.91,1.85,6.91,7v11.57l2.68.31v3.74H578.19v-3.74l1.67-.31V162.64c0-2.11-.13-3.7-2.11-3.7s-3.39,1.1-3.39,4.67v9.46l1.89.31v3.74H563.53v-3.74l2.69-.31V148.42l-2.69-.3v-3.7Z" transform="translate(-10.61 -2)"/><path class="cls-1" d="M603.57,154.5c5.81,0,10,3,10,9.81,0,.57-.05,2-.09,2.64H600.71c.09,3.43.66,6.51,4.36,6.51,2.55,0,3.7-1.8,4.71-4.09l3.74,1.32c-1.41,4.53-4.93,6.91-9.73,6.91-7.3,0-11.48-4.49-11.48-11.13C592.31,158.81,597.11,154.5,603.57,154.5Zm1.81,9.46v-.88c0-4-.18-5.63-2.11-5.63-2.2,0-2.51,2.94-2.51,6.51Z" transform="translate(-10.61 -2)"/><path class="cls-1" d="M625.53,154.85l.31,4.18h.31A6.94,6.94,0,0,1,633,154.5c3.21,0,5.36,1.1,6.16,4h.13a7,7,0,0,1,6.42-4c4.19,0,6.52,1.85,6.52,7v11.57l2.68.31v3.74H642.69v-3.74l1.37-.31V162.64c0-2.11-.14-3.7-1.76-3.7-1.37,0-2.82.88-2.82,4.1v10l1.76.31v3.74H629.89v-3.74l1.45-.31V162.64c0-2.11-.13-3.7-1.76-3.7s-2.86,1.1-2.86,4.67v9.46l1.67.31v3.74h-12.5v-3.74l2.69-.31V159.16l-2.69-.31v-3.69Z" transform="translate(-10.61 -2)"/><path class="cls-1" d="M661.87,169c2.73,0,4.62,1.27,4.62,4.18a4.12,4.12,0,0,1-4.49,4.4c-3.52,0-4.62-2.2-4.62-4.27A4.14,4.14,0,0,1,661.87,169Z" transform="translate(-10.61 -2)"/><path class="cls-1" d="M31.68,131.12a7,7,0,0,1-7-7v-8.74a7,7,0,0,1,6.43-7l1.39-.11V98.83L18.61,75.73l-1.85-.23a7,7,0,0,1-6.15-7V59.72a7,7,0,0,1,7-7H49A7,7,0,0,1,53,54a7,7,0,0,1,4-1.26H78.23a7,7,0,0,1,7,7v8.83a7,7,0,0,1-6.13,7l-1.66.21-13,23v9.56l1.4.11a7,7,0,0,1,6.42,7v8.74a7,7,0,0,1-7,7Z" transform="translate(-10.61 -2)"/><path class="cls-1" d="M98.66,132.13c-19.76,0-31.56-11.56-31.56-30.92S79.4,69.83,99.21,69.83c20,0,31.47,11.3,31.47,31C130.68,120.14,118.41,132.13,98.66,132.13Z" transform="translate(-10.61 -2)"/><path class="cls-1" d="M146.87,132.13c-13.8,0-21.72-7.88-21.72-21.63V92.27a7,7,0,0,1-4.69-6.61V78.58a7,7,0,0,1,6.67-7l21.71-1h.33a7,7,0,0,1,4.15,1.37,6.64,6.64,0,0,1,2.14-.44l21.44-1h.33a7,7,0,0,1,7,7v32a7,7,0,0,1,5.61,6.86v7.82a7,7,0,0,1-7,7H162.69a7,7,0,0,1-4.33-1.5A24.19,24.19,0,0,1,146.87,132.13Z" transform="translate(-10.61 -2)"/><path class="cls-1" d="M221.15,131.12a6.93,6.93,0,0,1-1.45-.15,7,7,0,0,1-1.45.15H199.17a7,7,0,0,1-7-7v-5.61a7,7,0,0,1,4-6.34v-9.1a7,7,0,0,1-4-6.34V91.19a7,7,0,0,1,6.78-7l14.45-.46h.23a7,7,0,0,1,3.56,1,21.25,21.25,0,0,1,8.31-1.5c10.88,0,17.37,6.54,17.37,17.49v11.48a7,7,0,0,1,4,6.34v5.61a7,7,0,0,1-7,7Z" transform="translate(-10.61 -2)"/><path class="cls-1" d="M259.56,131.84c-14.49,0-24.22-9.52-24.22-23.69,0-14.69,9.82-25,23.89-25,13.39,0,22,8.52,22,21.71,0,.94-.07,3.31-.15,4.46a7.06,7.06,0,0,1-.57,2.31,7,7,0,0,1,.27,4.88C277.86,126.13,269.91,131.84,259.56,131.84Z" transform="translate(-10.61 -2)"/><path class="cls-1" d="M294.67,131.84c-14.49,0-24.22-9.52-24.22-23.69,0-14.69,9.82-25,23.89-25,13.4,0,22.05,8.52,22.05,21.71,0,.94-.07,3.31-.15,4.46a7.06,7.06,0,0,1-.57,2.31,7,7,0,0,1,.27,4.88C313,126.13,305,131.84,294.67,131.84Z" transform="translate(-10.61 -2)"/><path class="cls-1" d="M326.62,131.84c-10,0-20.73-6.24-20.73-23.76,0-14.2,7.17-23.43,18.92-24.73a7,7,0,0,1-.64-2.92V75.15a7,7,0,0,1,6.78-7l16.56-.53h.23a7,7,0,0,1,7,7V112.2a7,7,0,0,1,3.95,6.31v5.61a7,7,0,0,1-7,7H336.78a7,7,0,0,1-2.88-.62A19.45,19.45,0,0,1,326.62,131.84Z" transform="translate(-10.61 -2)"/><path class="cls-1" d="M383.64,131.84c-14.51,0-23.89-9.25-23.89-23.56,0-15,10-25.08,24.95-25.08,9.92,0,19.93,5.36,19.93,17.36a13.65,13.65,0,0,1-2.5,8,7,7,0,0,1,2.59,7.14C403,123.16,396.47,131.84,383.64,131.84Z" transform="translate(-10.61 -2)"/><path class="cls-1" d="M414.46,131.84c-11,0-17.56-6.54-17.56-17.49V102.51a7,7,0,0,1-3.36-6V91.45a7,7,0,0,1,6.67-7l15.58-.73h.32a7,7,0,0,1,3.28.82,7.11,7.11,0,0,1,1.14-.15l15.38-.72h.33a7,7,0,0,1,7,7v21.51a7,7,0,0,1,4,6.34v5.61a7,7,0,0,1-7,7H425.81a7,7,0,0,1-3.24-.8A20.12,20.12,0,0,1,414.46,131.84Z" transform="translate(-10.61 -2)"/><path class="cls-1" d="M458.88,131.84a23.2,23.2,0,0,1-7.86-1.28,6.94,6.94,0,0,1-3,.69h-4.62a7,7,0,0,1-7-7V113.62a6.91,6.91,0,0,1,1.3-4.05,20.18,20.18,0,0,1-1.3-7.49c0-10.94,8.41-18.88,20-18.88a18.71,18.71,0,0,1,6.5,1.09,7.17,7.17,0,0,1,2.61-.5h4.16a7,7,0,0,1,7,7V101a7,7,0,0,1-.47,2.52,18,18,0,0,1,2.45,9.56C478.62,124.28,470.69,131.84,458.88,131.84Z" transform="translate(-10.61 -2)"/><path class="cls-1" d="M489.57,131.84c-11.87,0-18.68-6.61-18.68-18.15v-10.2a7,7,0,0,1-4.95-6.69V90.92a7,7,0,0,1,4.95-6.69V82.8a7,7,0,0,1,5.77-6.89l7.39-1.32a7.3,7.3,0,0,1,1.23-.11h4.82a7,7,0,0,1,7,7v2.44h2.7a7,7,0,0,1,7,7V96.8a7,7,0,0,1-7,7h-2.7v1.71h.38a7,7,0,0,1,1.8.24l4.49,1.18a7,7,0,0,1,5.06,8.19C507.34,122.29,503.73,131.84,489.57,131.84Z" transform="translate(-10.61 -2)"/><path class="cls-1" d="M521.32,131.84c-15.42,0-24.62-9-24.62-24.16,0-14.87,9.81-24.48,25-24.48,15.38,0,24.56,9,24.56,24.22S536.71,131.84,521.32,131.84Z" transform="translate(-10.61 -2)"/><path class="cls-1" d="M582.36,131.12a6.59,6.59,0,0,1-1.09-.09,6.38,6.38,0,0,1-1.08.09h-17A6.86,6.86,0,0,1,562,131a7,7,0,0,1-1.12.09H542.17a7,7,0,0,1-7-7v-5.61a7,7,0,0,1,4-6.34v-9.1a7,7,0,0,1-4-6.34V91.19a7,7,0,0,1,6.78-7l14.45-.46h.23a7,7,0,0,1,3.57,1,18.75,18.75,0,0,1,7.58-1.5,17.84,17.84,0,0,1,9.86,2.53,17.32,17.32,0,0,1,9.21-2.53c10.66,0,16.77,6.37,16.77,17.49v11.48a7,7,0,0,1,4,6.34v5.61a7,7,0,0,1-7,7Z" transform="translate(-10.61 -2)"/><path class="cls-1" d="M620.31,131.84c-14.48,0-24.22-9.52-24.22-23.69,0-14.69,9.83-25,23.9-25,13.39,0,22,8.52,22,21.71,0,.94-.07,3.31-.15,4.46a7.06,7.06,0,0,1-.57,2.31,7,7,0,0,1,.27,4.88C638.61,126.13,630.66,131.84,620.31,131.84Z" transform="translate(-10.61 -2)"/><path class="cls-1" d="M638.2,131.12a7,7,0,0,1-7-7v-5.61a7,7,0,0,1,4.29-6.46v-8.93a7,7,0,0,1-4.29-6.46V91.25a7,7,0,0,1,6.76-7l15.45-.53h.24a7,7,0,0,1,3.28.82,17.86,17.86,0,0,1,6.94-1.34c9.09,0,15.19,6.34,15.19,15.77,0,7.78-4.74,13.43-11.78,14.43a7,7,0,0,1,2.21,5.11v5.61a7,7,0,0,1-7,7Z" transform="translate(-10.61 -2)"/><path class="cls-1" d="M689.42,131.84a23.31,23.31,0,0,1-7.87-1.28,6.86,6.86,0,0,1-3,.69h-4.62a7,7,0,0,1-7-7V113.62a7,7,0,0,1,1.29-4.05,20.39,20.39,0,0,1-1.29-7.49c0-10.94,8.41-18.88,20-18.88a18.75,18.75,0,0,1,6.5,1.09,7.13,7.13,0,0,1,2.61-.5h4.15a7,7,0,0,1,7,7V101a7,7,0,0,1-.46,2.52,18,18,0,0,1,2.44,9.56C709.15,124.28,701.22,131.84,689.42,131.84Z" transform="translate(-10.61 -2)"/><path class="cls-1" d="M712.78,131.78c-8.2,0-13.93-5.51-13.93-13.4s5.78-13.47,13.73-13.47c8.33,0,13.93,5.33,13.93,13.27S720.87,131.78,712.78,131.78Z" transform="translate(-10.61 -2)"/><path d="M62.78,69.2,57,68.55V59.72H78.23v8.83l-5.15.65L57.44,96.89v17.84l7.82.65v8.74H31.68v-8.74l7.82-.65V96.89L22.85,69.2l-5.24-.65V59.72H49v8.83l-6,.65,9.84,17.93Z" transform="translate(-10.61 -2)"/><path d="M99.21,76.83c17.76,0,24.47,10,24.47,24,0,14.35-7.91,24.29-25,24.29-17.48,0-24.56-9.94-24.56-23.92C74.1,86.86,82.38,76.83,99.21,76.83Zm-.37,6.26c-5.7,0-6.9,5.33-6.9,17.48,0,13.34,1.2,18.21,7.09,18.21,5.52,0,6.81-5.24,6.81-17.57C105.84,88.15,104.82,83.09,98.84,83.09Z" transform="translate(-10.61 -2)"/><path d="M162.69,124.12l-.64-8.47h-.65c-2.11,4.88-5.06,9.48-14.53,9.48-9,0-14.72-3.86-14.72-14.63V86.31l-4.69-.65V78.58l21.71-1v30.54c0,4.42.27,7.73,4.41,7.73,3.87,0,6.63-2.3,6.63-9.75V86.31l-4.42-.65V78.49l21.44-1v38.17l5.61.65v7.82Z" transform="translate(-10.61 -2)"/><path d="M213.63,90.72l.46,6.27h.46c1.52-3.49,4-6.79,10.95-6.79,6.27,0,10.37,2.77,10.37,10.49v17.36l4,.46v5.61H221.15v-5.61l2.51-.46V102.41c0-3.17-.2-5.55-3.17-5.55s-5.08,1.65-5.08,7v14.19l2.84.46v5.61H199.17v-5.61l4-.46V97.19l-4-.46V91.19Z" transform="translate(-10.61 -2)"/><path d="M259.23,90.2c8.71,0,15,4.55,15,14.71,0,.86-.07,3-.13,4H254.94c.13,5.15,1,9.77,6.53,9.77,3.83,0,5.55-2.71,7.07-6.14l5.61,2c-2.12,6.8-7.4,10.36-14.59,10.36-10.95,0-17.22-6.73-17.22-16.69C242.34,96.66,249.53,90.2,259.23,90.2Zm2.71,14.18v-1.31c0-6-.27-8.45-3.17-8.45-3.3,0-3.76,4.42-3.76,9.76Z" transform="translate(-10.61 -2)"/><path d="M294.34,90.2c8.71,0,15.05,4.55,15.05,14.71,0,.86-.07,3-.13,4H290.05c.13,5.15,1,9.77,6.54,9.77,3.82,0,5.54-2.71,7.06-6.14l5.61,2c-2.11,6.8-7.39,10.36-14.59,10.36-10.95,0-17.22-6.73-17.22-16.69C277.45,96.66,284.64,90.2,294.34,90.2Zm2.71,14.18v-1.31c0-6-.27-8.45-3.17-8.45-3.3,0-3.76,4.42-3.76,9.76Z" transform="translate(-10.61 -2)"/><path d="M347.74,118.05l3.95.46v5.61H336.78l-.66-4.16h-.33c-1.25,2.37-4,4.88-9.17,4.88-8.78,0-13.73-5.94-13.73-16.76s4.88-17.88,14.85-17.88a8.88,8.88,0,0,1,7.65,3.63l.2-.07V81l-4.42-.53V75.15l16.57-.53Zm-11.95-6.8v-8.84c0-4.56-2.11-7.07-5.35-7.07-3.95,0-4.75,4-4.75,12.34,0,7.26.53,11.82,4.89,11.82C334.47,119.5,335.79,116,335.79,111.25Z" transform="translate(-10.61 -2)"/><path class="cls-2" d="M397.63,100.56c0,3.16-1.91,6.27-6,6.27-3.9,0-5.22-3-5.22-5.55a13.79,13.79,0,0,1,.4-2.83h2.64a8.35,8.35,0,0,0,.13-1.13c0-1.91-1.32-2.57-3.3-2.57-5.28,0-6.73,5.67-6.73,12.6,0,7.26,1.12,11.36,6.2,11.36,3.83,0,5.22-3.37,6.47-6.47l5.67,1.91c-.92,4-4.48,10.69-14.25,10.69-10.95,0-16.89-6.27-16.89-16.56,0-10.82,6.46-18.08,17.95-18.08C394.33,90.2,397.63,95.41,397.63,100.56Z" transform="translate(-10.61 -2)"/><path class="cls-2" d="M425.81,124.12l-.46-6.07h-.46c-1.52,3.49-3.63,6.79-10.43,6.79-6.46,0-10.56-2.77-10.56-10.49V97l-3.36-.46V91.45l15.57-.73v21.91c0,3.17.2,5.55,3.17,5.55,2.77,0,4.75-1.65,4.75-7V97l-3.17-.46V91.38l15.38-.72v27.39l4,.46v5.61Z" transform="translate(-10.61 -2)"/><path class="cls-2" d="M443.37,113.62h4.88c1.39,3.37,4.29,6.27,9.71,6.27,3.63,0,5-.92,5-2.77,0-2.37-3.24-2.84-7.13-3.43-5.61-.92-12.41-2.38-12.41-11.61,0-7.4,5.61-11.88,13-11.88,4.69,0,5.94,2,7.66,2,1,0,1-.39,1.45-1.45h4.16V101h-4.75c-2-4.22-4.1-5.94-8.25-5.94-2.18,0-4.69.53-4.69,2.84,0,2.11,3,2.71,7.06,3.5,5.61,1.12,12.61,2.84,12.61,11.68,0,7.92-5.41,11.81-12.74,11.81-5.74,0-7.59-2.24-9.3-2.24-.8,0-1.06.53-1.59,1.65h-4.62Z" transform="translate(-10.61 -2)"/><path class="cls-2" d="M477.89,96.8h-4.95V90.92h4.95V82.8l7.39-1.32h4.82v9.44h9.7V96.8h-9.7v17.68c0,2.71.86,4.16,3,4.16,2.45,0,3.24-2,4.36-6.14l4.49,1.19c-1.52,7.33-4.36,11.15-12.41,11.15-7.52,0-11.68-3-11.68-11.15Z" transform="translate(-10.61 -2)"/><path class="cls-2" d="M521.71,90.2c12.74,0,17.56,7.19,17.56,17.22,0,10.3-5.68,17.42-17.95,17.42-12.54,0-17.62-7.12-17.62-17.16C503.7,97.39,509.63,90.2,521.71,90.2Zm-.26,4.48c-4.09,0-5,3.83-5,12.54,0,9.57.86,13.07,5.08,13.07,4,0,4.88-3.76,4.88-12.61C526.46,98.31,525.74,94.68,521.45,94.68Z" transform="translate(-10.61 -2)"/><path class="cls-2" d="M556.62,90.72l.47,6.27h.46c1.52-3.49,4.42-6.79,10.23-6.79,4.82,0,8.05,1.65,9.24,6h.2c1.84-3.23,4.61-6,9.63-6,6.27,0,9.77,2.77,9.77,10.49v17.36l4,.46v5.61H582.36v-5.61l2-.46V102.41c0-3.17-.2-5.55-2.64-5.55-2,0-4.22,1.32-4.22,6.14v15l2.64.46v5.61h-17v-5.61l2.18-.46V102.41c0-3.17-.2-5.55-2.64-5.55-2.25,0-4.29,1.65-4.29,7v14.19l2.51.46v5.61H542.17v-5.61l4-.46V97.19l-4-.46V91.19Z" transform="translate(-10.61 -2)"/><path class="cls-2" d="M620,90.2c8.71,0,15,4.55,15,14.71,0,.86-.06,3-.13,4H615.7c.13,5.15,1,9.77,6.53,9.77,3.83,0,5.54-2.71,7.06-6.14l5.61,2c-2.11,6.8-7.39,10.36-14.59,10.36-10.95,0-17.22-6.73-17.22-16.69C603.09,96.66,610.28,90.2,620,90.2Zm2.7,14.18v-1.31c0-6-.26-8.45-3.17-8.45-3.3,0-3.76,4.42-3.76,9.76Z" transform="translate(-10.61 -2)"/><path class="cls-2" d="M662.49,118.51v5.61H638.2v-5.61l4.29-.46V97.19l-4.29-.53V91.25l15.44-.53.47,5.68h.26c1.45-2.9,4-6.2,9.5-6.2,4.89,0,8.19,3,8.19,8.77,0,4.75-2.77,7.59-7.06,7.59-4.89,0-6.21-3-6.14-6.79L661.7,99a5.79,5.79,0,0,0,.13-.92c0-1.06-.66-1.59-1.78-1.59-3.77,0-5.35,4.42-5.35,9.9v11.62Z" transform="translate(-10.61 -2)"/><path class="cls-2" d="M673.91,113.62h4.88c1.39,3.37,4.29,6.27,9.7,6.27,3.63,0,5-.92,5-2.77,0-2.37-3.23-2.84-7.13-3.43-5.6-.92-12.4-2.38-12.4-11.61,0-7.4,5.61-11.88,13-11.88,4.68,0,5.94,2,7.65,2,1,0,1-.39,1.46-1.45h4.15V101h-4.75c-2-4.22-4.09-5.94-8.25-5.94-2.18,0-4.68.53-4.68,2.84,0,2.11,3,2.71,7.06,3.5,5.61,1.12,12.6,2.84,12.6,11.68,0,7.92-5.41,11.81-12.73,11.81-5.75,0-7.59-2.24-9.31-2.24-.79,0-1.06.53-1.58,1.65h-4.62Z" transform="translate(-10.61 -2)"/><path class="cls-2" d="M712.58,111.91c4.09,0,6.93,1.91,6.93,6.27,0,3.89-2.37,6.6-6.73,6.6-5.28,0-6.93-3.3-6.93-6.4C705.85,114.75,708.23,111.91,712.58,111.91Z" transform="translate(-10.61 -2)"/></g><g id="Layer_2" data-name="Layer 2"><path class="cls-1" d="M172.92,17.86a17.88,17.88,0,0,0-11.84,3.32V2L149,2.38V8h4.45V53.65h7.63v-3A18.09,18.09,0,0,0,189.66,36a18.29,18.29,0,0,0-16.74-18.09Zm5.54,25.89.63,5.5-5-3.19a10.71,10.71,0,0,1-2.6.34A10.5,10.5,0,1,1,182,35.9a10.39,10.39,0,0,1-3.56,7.85Z" transform="translate(-10.61 -2)"/><path class="cls-1" d="M215,53.57h7.64V18.2l-12,.37V24.2H215V39.68a6.81,6.81,0,0,1-5.8,6.84,6.41,6.41,0,0,1-.88,0,6.71,6.71,0,0,1-6.67-6.67V18.2l-12,.37V24.2h4.45V39.93a14.23,14.23,0,0,0,20.94,12.59" transform="translate(-10.61 -2)"/><path class="cls-1" d="M290.37,18.57a14.28,14.28,0,0,0-6.67,1.68V18.62L271.65,19v5.63h4.45V53.86h7.64V33.09a6.8,6.8,0,0,1,5.79-6.84,6.48,6.48,0,0,1,.88,0,6.71,6.71,0,0,1,6.67,6.67v21h7.6V32.84a14.42,14.42,0,0,0-14.31-14.27Z" transform="translate(-10.61 -2)"/><path class="cls-1" d="M254.74,18.57V24.2h4.41V53.65h7.64V18.2Z" transform="translate(-10.61 -2)"/><circle class="cls-1" cx="251.65" cy="6" r="4.74"/><path class="cls-1" d="M240.69,32.21c-6.63-1.34-6.63-2.6-6.63-3.56v-.09c0-1.55,1.93-3.19,5.07-3.19a12.37,12.37,0,0,1,7.3,2.52l4.58-6A19,19,0,0,0,239.22,18c-7.09,0-12.68,4.65-12.68,10.65v0c0,7.3,6.34,9.52,12.47,10.78,6.75,1.38,6.75,2.64,6.75,3.65v.08c0,2.4-2.77,3.49-5.54,3.49a11.81,11.81,0,0,1-8.51-3.49l-5.17,5.5a19.66,19.66,0,0,0,13.64,5.5c7.6,0,13.09-4.62,13.09-10.95v-.09C253.27,35.78,246.9,33.47,240.69,32.21Z" transform="translate(-10.61 -2)"/><path class="cls-1" d="M361.24,32.21c-6.63-1.34-6.63-2.6-6.63-3.52V28.6c0-1.55,1.93-3.19,5.08-3.19a12.49,12.49,0,0,1,7.3,2.52l4.57-6A19,19,0,0,0,359.77,18c-7.09,0-12.67,4.66-12.67,10.66v0c0,7.3,6.34,9.52,12.46,10.78,6.76,1.39,6.76,2.65,6.76,3.65v.09c0,2.39-2.77,3.48-5.54,3.48a11.64,11.64,0,0,1-8.52-3.53l-5.2,5.5a19.64,19.64,0,0,0,13.64,5.5c7.59,0,13.09-4.62,13.09-10.95v-.09C373.83,35.78,367.49,33.47,361.24,32.21Z" transform="translate(-10.61 -2)"/><path class="cls-1" d="M390.53,32.21c-6.63-1.34-6.63-2.6-6.63-3.52V28.6c0-1.55,1.93-3.19,5.08-3.19a12.49,12.49,0,0,1,7.3,2.52l4.57-6A19,19,0,0,0,389.06,18c-7.09,0-12.67,4.66-12.67,10.66v0c0,7.3,6.34,9.52,12.46,10.78,6.76,1.39,6.76,2.65,6.76,3.65v.09c0,2.39-2.77,3.48-5.54,3.48a11.86,11.86,0,0,1-8.52-3.48l-5.2,5.45A19.64,19.64,0,0,0,390,54.16c7.6,0,13.1-4.62,13.1-10.95v-.09C403.08,35.78,396.74,33.47,390.53,32.21Z" transform="translate(-10.61 -2)"/><path class="cls-1" d="M407.15,26.38a4,4,0,1,1,8.05,0,3.85,3.85,0,0,1-1.34,3.1l-1.17-1.09a2.66,2.66,0,0,0,1-2,2.3,2.3,0,0,0-2.48-2.22,2.36,2.36,0,0,0-2.47,2.3,2.76,2.76,0,0,0,1,2l-1,1.05A3.86,3.86,0,0,1,407.15,26.38Z" transform="translate(-10.61 -2)"/><path class="cls-1" d="M407.15,35.23v-.12a4,4,0,0,1,4-4h.13a4.12,4.12,0,1,1-4.11,4.11Zm6.5,0a2.33,2.33,0,0,0-2.48-2.35h-.12a2.35,2.35,0,0,0-2.35,2.35h0a2.32,2.32,0,0,0,2.47,2.35h.13a2.33,2.33,0,0,0,2.35-2.35Z" transform="translate(-10.61 -2)"/><path class="cls-1" d="M415.16,50.68c0,1.67-1.05,2.72-2.94,2.72h-4.91V51.6h4.37c1.22,0,1.89-.59,1.89-1.6s-.67-1.67-1.89-1.67h-4.32V46.56h4.32c1.17,0,1.84-.58,1.84-1.59s-.71-1.68-1.93-1.68h-4.32V41.53H415v1.76h-1.17a2.71,2.71,0,0,1,1.34,2.35A2.5,2.5,0,0,1,413.78,48,3.44,3.44,0,0,1,415.16,50.68Z" transform="translate(-10.61 -2)"/><circle class="cls-1" cx="397.67" cy="17.2" r="1.13"/><path class="cls-1" d="M344.29,39.09a18.62,18.62,0,0,0,.25-3.1,18.09,18.09,0,0,0-36.17,0c0,9.9,0,0,0,0v.8c0,.16,0,.37,0,.58v.21a2.74,2.74,0,0,0,.09.63.38.38,0,0,0,0,.21c0,.17,0,.38.08.55v.12A18.59,18.59,0,0,0,327.08,54a18.89,18.89,0,0,0,16-8.68l-6.54-3.86a11.37,11.37,0,0,1-9.44,4.95,11.07,11.07,0,0,1-10.62-7.3l27.78,0ZM326.5,25.5a10.45,10.45,0,0,1,9.94,7.3H316.51a10.45,10.45,0,0,1,10-7.3Z" transform="translate(-10.61 -2)"/></g></svg>