<?xml version="1.0" encoding="UTF-8"?>
<svg id="Layer_2" data-name="Layer 2" xmlns="http://www.w3.org/2000/svg" viewBox="0 0 241.32 266.53">
  <g id="Layer_1-2" data-name="Layer 1">
    <polygon points="110.57 34.04 133.82 0 149.19 38.25 184.91 17.67 182.17 58.8 223.28 55.76 202.95 91.63 241.32 106.72 207.44 130.22 235.46 160.46 194.74 166.94 206.86 206.34 167.37 194.51 161.19 235.27 130.75 207.47 107.49 241.51 92.12 203.26 56.4 223.84 59.15 182.71 18.04 185.75 38.36 149.89 0 134.79 33.87 111.3 5.86 81.05 46.57 74.58 34.45 35.17 73.95 47.01 80.12 6.25 110.57 34.04" fill="#e29805"/>
    <g>
      <path d="M71.36,147.25c-4.73.75-7.26-2.84-7.49-3.23-.14.19-2.72,4.85-9.35,5.91-5.23.83-10.23-1.78-11.25-8.16-1.31-8.21,2.34-17.38,14.2-19.27,4.4-.7,6.31.61,7.63.4,2.07-.33,5.56-2.5,7.46-2.8.75-.12,1.3.13,1.44,1.05.32,1.99-1.56,8.92-.53,15.39.34,2.16,1.87,3.19,3.36,2.95,1.41-.22,1.97-.99,2.88-2.24.49-.67.78-.97,1.28-1.05.75-.12,1.27.48,1.35.98.15.91-.25,1.66-.91,2.87-1.39,2.52-4.85,6.39-10.08,7.22ZM59.52,126.85c-2.82.45-4.55,8.29-3.68,13.77.28,1.74,1.23,2.95,2.48,2.75,2.9-.46,3.76-10.04,2.94-15.18-.16-1-.75-1.5-1.74-1.34Z" fill="#fff"/>
      <path d="M91.21,120.19c.89-1.33,3.26-3.58,6.99-4.17,5.23-.83,9.49.87,10.47,7.01,1.28,8.05-3.3,18.81-14.83,20.65-8.46,1.34-13.81-2.31-14.81-8.62-1.27-7.96,2.97-18.25,1.25-29.03-.44-2.74-1.64-3.91-3.38-3.63-.83.13-1.3-.13-1.4-.8-.28-1.74,4.43-5.3,9.16-6.05,4.4-.7,7.5,1.19,8.16,5.34.66,4.15-1.47,15.37-1.61,19.31ZM93.54,138.62c2.65-.42,3.82-10.73,3.31-13.96-.24-1.49-.85-2.16-2.18-1.95-2.16.34-3.95,8.88-3.09,14.27.17,1.08.88,1.82,1.96,1.64Z" fill="#fff"/>
      <path d="M139.24,119.53c1.48,9.29-2.55,17.67-13.58,19.43-7.3,1.16-13.53-2.19-14.59-8.82-1.28-8.05,4.24-17.18,15.61-18.98,6.97-1.11,11.65,2.66,12.56,8.38ZM130.49,122.28c-2.73-.59-3.44-1.32-3.65-2.65-.3-1.91.88-3.03.79-3.61-.05-.33-.25-.47-.66-.4-.33.05-1.27.54-2.2,1.71-1.49,1.85-2.22,4.78-1.46,9.5.59,3.73,2.26,5.68,5.25,5.2,3.07-.49,4.56-3.96,4.1-6.86-.22-1.41-.92-2.58-2.16-2.89Z" fill="#fff"/>
      <path d="M161.05,128.31s-3.09,5.17-10.97,6.42c-4.15.66-7.36-1.38-7.98-5.28-.82-5.14,1.04-11.65.56-14.64-.22-1.41-.83-1.48-1-2.56-.29-1.83,5.24-3.98,10.05-4.74,1.83-.29,2.94.3,3.16,1.71.61,3.82-1.64,9.45-.68,15.5.2,1.25,1.16,1.94,2.32,1.76,1.33-.21,1.83-1.31,2.59-3.47,1.31-3.53,1.72-7.93,1.23-11-.22-1.41-.83-1.48-1-2.56-.29-1.83,5.24-3.98,10.05-4.74,1.83-.29,2.94.3,3.16,1.71.51,3.24-1.37,10.08-.61,14.9.28,1.74,1.55,2.82,2.72,2.63,1.41-.22,1.97-.99,2.88-2.24.49-.67.78-.97,1.28-1.05.75-.12,1.27.48,1.35.98.14.91-.25,1.66-.91,2.87-1.39,2.52-4.36,6.31-9.58,7.14-6.55,1.04-8.61-3.31-8.61-3.31Z" fill="#fff"/>
      <path d="M190.37,108.34c-.28,2.51-.69,6.91-.25,9.65.38,2.41,1.76,3.04,3.75,2.72,1.58-.25,2.96-1.75,4.04-2.94.65-.7,1.07-1.28,1.57-1.36.66-.11,1.16.33,1.24.82s-.15,1.21-.68,2.15c-1.85,3.36-6.65,8.46-12.54,9.39-5.97.95-9.11-2.21-9.81-6.6-.84-5.31,1.07-9.87.41-14.01-.17-1.08-2.31-.06-2.54-1.55-.13-.83.12-2.49,1.03-2.63,4.4-.7,7.94-5.17,10.21-9.62.71-1.39,1.53-2.12,2.28-2.24.91-.15,1.5.36,1.65,1.27.29,1.83-.36,5.25-.13,6.66.17,1.08.68,1.59,2.83,1.25.66-.11,1.2.06,1.31.73.26,1.66-.46,2.97-1.46,3.12-2.07.33-2.63,1.1-2.9,3.18Z" fill="#fff"/>
    </g>
  </g>
</svg>