<?xml version="1.0" encoding="UTF-8"?>
<svg id="Layer_2" data-name="Layer 2" xmlns="http://www.w3.org/2000/svg" viewBox="0 0 241.32 241.51">
  <g id="Layer_1-2" data-name="Layer 1">
    <polygon points="110.57 34.04 133.82 0 149.19 38.25 184.91 17.67 182.17 58.8 223.28 55.76 202.95 91.63 241.32 106.72 207.44 130.22 235.46 160.46 194.74 166.94 206.86 206.34 167.37 194.51 161.19 235.27 130.75 207.47 107.49 241.51 92.12 203.26 56.4 223.84 59.15 182.71 18.04 185.75 38.36 149.89 0 134.79 33.87 111.3 5.86 81.05 46.57 74.58 34.45 35.17 73.95 47.01 80.12 6.25 110.57 34.04" fill="#e29805"/>
    <g>
      <path d="M64.3,133.7c.59-.57.89-.82,1.29-.88.46-.07.85.2.91.6.14.86-.19,1.39-1.01,2.6-1.89,2.61-4.94,6.48-11.49,7.52-6.15.98-11.38-1.17-12.32-7.06-1.09-6.88,3.64-13.4,12.17-14.76,5.03-.8,7.55.97,7.95,3.48.43,2.71-1.02,5.12-3.53,5.52-1.65.26-2.88-.63-3.09-1.95-.23-1.46.63-2,.57-2.8-.08-.53-.33-.83-1.13-.7-1.46.23-3.36,3.18-2.61,7.88.49,3.11,3.12,4.66,6.36,4.15,2.51-.4,4.48-2.14,5.94-3.59Z" fill="#fff"/>
      <path d="M86.94,124.6c1.18,7.41-2.03,14.09-10.83,15.49-5.82.93-10.79-1.74-11.63-7.04-1.02-6.42,3.38-13.7,12.45-15.14,5.56-.88,9.29,2.12,10.02,6.68ZM79.96,126.8c-2.18-.47-2.75-1.06-2.91-2.11-.24-1.52.7-2.42.63-2.88-.04-.26-.2-.38-.53-.32-.26.04-1.02.43-1.75,1.36-1.19,1.48-1.77,3.81-1.17,7.58.47,2.98,1.81,4.53,4.19,4.15,2.45-.39,3.64-3.16,3.27-5.47-.18-1.12-.73-2.06-1.72-2.3Z" fill="#fff"/>
      <path d="M103.71,130.21c-.64-4.04,1.02-7.22.61-9.8-.14-.86-.68-1.32-1.41-1.2-1.12.18-1.91,1.19-2.91,4.33-.77,2.43-1.59,8.33-1.18,10.91.18,1.12-.24,1.46-1.23,1.62-1.99.32-5.51,1.21-6.5,1.37-.86.14-1.44-.11-1.62-1.24-.39-2.45.97-11.82.4-15.4-.18-1.12-.66-1.18-.8-2.04-.23-1.46,3.98-3.14,7.82-3.75,1.46-.23,2.34.24,2.52,1.36.17,1.06,0,2.58,0,2.58.96-1.65,4.16-5,8.06-5.62,3.64-.58,5.69.79,6.09,3.31.48,3.04-.79,6.98-.36,9.69.2,1.26,1.12,1.93,2.11,1.77,1.12-.18,1.57-.79,2.29-1.79.39-.54.62-.78,1.02-.84.6-.09,1.01.38,1.07.78.12.73-.2,1.32-.72,2.29-1.11,2.01-3.54,5.04-7.71,5.7-3.77.6-7.11-1.18-7.56-4.02Z" fill="#fff"/>
      <path d="M127.85,115.66c-.22,2-.55,5.52-.2,7.7.31,1.92,1.4,2.42,2.99,2.17,1.26-.2,2.36-1.39,3.22-2.34.52-.56.86-1.02,1.25-1.08.53-.08.92.26.99.66.06.4-.12.97-.54,1.71-1.47,2.68-5.3,6.75-10,7.49-4.76.76-7.27-1.76-7.82-5.27-.67-4.23.85-7.87.33-11.18-.14-.86-1.84-.05-2.03-1.24-.11-.66.09-1.98.82-2.1,3.51-.56,6.33-4.13,8.14-7.67.57-1.11,1.22-1.69,1.82-1.78.73-.12,1.2.28,1.31,1.01.23,1.46-.28,4.18-.11,5.31.14.86.54,1.27,2.26,1,.53-.08.96.05,1.04.58.21,1.32-.37,2.37-1.17,2.49-1.65.26-2.1.88-2.31,2.54Z" fill="#fff"/>
      <path d="M156.46,127.05c-3.77.6-5.79-2.27-5.97-2.58-.11.15-2.17,3.87-7.46,4.71-4.17.66-8.16-1.42-8.97-6.51-1.04-6.55,1.87-13.86,11.33-15.37,3.51-.56,5.03.49,6.09.32,1.65-.26,4.43-1.99,5.95-2.23.59-.09,1.03.11,1.15.83.25,1.59-1.24,7.12-.42,12.28.27,1.72,1.49,2.54,2.68,2.36,1.12-.18,1.57-.79,2.29-1.79.39-.54.62-.78,1.02-.84.6-.09,1.01.38,1.07.78.12.73-.2,1.32-.72,2.29-1.11,2.01-3.87,5.09-8.04,5.76ZM147.02,110.78c-2.25.36-3.63,6.62-2.93,10.98.22,1.39.98,2.35,1.98,2.19,2.32-.37,3-8.01,2.35-12.11-.13-.79-.6-1.19-1.39-1.07Z" fill="#fff"/>
      <path d="M185.52,114.42c.59-.57.89-.82,1.28-.88.46-.07.85.2.91.6.14.86-.19,1.39-1.01,2.6-1.89,2.61-4.94,6.48-11.49,7.52-6.15.98-11.38-1.18-12.32-7.06-1.09-6.88,3.64-13.4,12.17-14.76,5.03-.8,7.55.97,7.95,3.48.43,2.71-1.02,5.12-3.53,5.52-1.65.26-2.88-.63-3.09-1.95-.23-1.46.63-2,.57-2.81-.08-.53-.34-.83-1.13-.7-1.46.23-3.36,3.18-2.61,7.88.49,3.11,3.12,4.66,6.36,4.14,2.51-.4,4.48-2.14,5.94-3.59Z" fill="#fff"/>
      <path d="M196.14,104.8c-.22,2-.55,5.51-.2,7.7.3,1.92,1.4,2.42,2.99,2.17,1.26-.2,2.36-1.39,3.22-2.34.52-.56.86-1.02,1.25-1.08.53-.08.92.26.99.66.06.4-.12.97-.54,1.71-1.47,2.68-5.3,6.75-10,7.49-4.77.76-7.27-1.76-7.83-5.27-.67-4.23.85-7.87.33-11.18-.14-.86-1.84-.05-2.03-1.24-.11-.66.09-1.98.82-2.1,3.51-.56,6.33-4.13,8.14-7.67.57-1.11,1.22-1.69,1.82-1.78.73-.12,1.2.28,1.31,1.01.23,1.46-.29,4.18-.11,5.31.14.86.54,1.27,2.26,1,.53-.08.96.05,1.04.58.21,1.32-.37,2.37-1.16,2.49-1.66.26-2.1.88-2.31,2.54Z" fill="#fff"/>
    </g>
  </g>
</svg>