<?xml version="1.0" encoding="UTF-8"?>
<svg id="Layer_1" data-name="Layer 1" xmlns="http://www.w3.org/2000/svg" viewBox="0 0 240.62 240.62">
  <polygon points="121.49 21.33 150.21 1.95 166.64 32.45 201.07 28.65 201.44 63.29 233.7 75.92 217.93 106.76 240.62 132.94 212.32 152.92 220.25 186.65 185.91 191.19 177.26 224.74 144.74 212.8 121.49 238.48 98.24 212.8 65.72 224.74 57.07 191.19 22.72 186.65 30.65 152.92 2.36 132.94 25.05 106.76 9.28 75.92 41.54 63.29 41.91 28.65 76.34 32.45 92.77 1.95 121.49 21.33" stroke="#534e22" stroke-miterlimit="10"/>
  <g>
    <path d="M62.36,125.31v1.53c0,2.67-1,4.99-3.01,6.96-1.88,1.83-4.23,2.74-7.06,2.74s-5.15-.91-7.06-2.74c-2.01-1.94-3.01-4.26-3.01-6.96v-8.25c0-2.68,1-5.01,3.01-6.96,1.88-1.83,4.23-2.74,7.06-2.74s5.12.91,7.06,2.74c2.01,1.89,3.01,3.98,3.01,6.26v.05l-4.61,2.18h-.24v-1.53c0-1.86-.51-3.22-1.52-4.09s-2.24-1.3-3.7-1.3-2.69.43-3.7,1.3c-1.01.87-1.52,2.23-1.52,4.09v8.25c0,1.86.51,3.22,1.52,4.09,1.01.86,2.24,1.3,3.7,1.3s2.69-.44,3.7-1.31c1.01-.87,1.52-2.01,1.52-3.42l4.61-2.18h.24Z" fill="#fff"/>
    <path d="M67.65,126.84v-8.25c0-2.67,1-4.99,3.01-6.96,1.88-1.83,4.23-2.74,7.06-2.74s5.15.91,7.06,2.74c2.01,1.94,3.01,4.26,3.01,6.96v8.25c0,2.67-1,4.99-3.01,6.96-1.88,1.83-4.23,2.74-7.06,2.74s-5.15-.91-7.06-2.74c-2.01-1.94-3.01-4.26-3.01-6.96ZM72.5,126.84c0,1.86.51,3.22,1.52,4.09,1.01.86,2.24,1.3,3.7,1.3s2.69-.43,3.7-1.3c1.01-.87,1.52-2.23,1.52-4.09v-8.25c0-1.86-.51-3.22-1.52-4.09s-2.24-1.3-3.7-1.3-2.69.43-3.7,1.3c-1.01.87-1.52,2.23-1.52,4.09v8.25Z" fill="#fff"/>
    <path d="M93.07,137.03v-18.44c0-2.67,1-4.99,3.01-6.96,1.88-1.83,4.23-2.74,7.06-2.74s5.15.91,7.06,2.74c2.01,1.94,3.01,4.26,3.01,6.96v16.25l-4.61,2.18h-.24v-18.44c0-1.86-.51-3.22-1.52-4.09s-2.24-1.3-3.7-1.3-2.69.43-3.7,1.3c-1.01.87-1.52,2.23-1.52,4.09v16.25l-4.61,2.18h-.24Z" fill="#fff"/>
    <path d="M122.7,137.03v-23.24h-6.24v-.24l1.97-4.17h4.27v-8.73l4.61-2.18h.24v10.92h6.23v.24l-1.96,4.17h-4.27v21.06l-4.61,2.18h-.24Z" fill="#fff"/>
    <path d="M154.48,134.84l-4.61,2.18h-.24v-2.55c-1.29,1.37-3.03,2.06-5.22,2.06-3.02,0-5.38-.91-7.06-2.74s-2.52-3.99-2.52-6.48.91-4.79,2.74-6.6c1.76-1.75,4.04-2.62,6.84-2.62,1.99,0,3.73.69,5.22,2.06,0-2.86-.5-4.75-1.5-5.65-.97-.87-2.21-1.31-3.71-1.31h-5.89v-.24l1.94-4.08h3.95c2.83,0,5.18.91,7.06,2.74,2,1.96,3.01,4.28,3.01,6.96v16.25ZM139.58,127.32c0,1.44.44,2.63,1.31,3.57.84.91,2.02,1.36,3.54,1.36s2.81-.46,3.69-1.38c.97-1.03,1.46-2.2,1.46-3.49,0-1.46-.5-2.64-1.5-3.54s-2.21-1.36-3.61-1.36-2.65.48-3.54,1.43c-.89.95-1.33,2.1-1.33,3.42Z" fill="#fff"/>
    <path d="M179.91,125.31v1.53c0,2.67-1,4.99-3.01,6.96-1.88,1.83-4.23,2.74-7.06,2.74s-5.15-.91-7.06-2.74c-2.01-1.94-3.01-4.26-3.01-6.96v-8.25c0-2.68,1-5.01,3.01-6.96,1.88-1.83,4.23-2.74,7.06-2.74s5.12.91,7.06,2.74c2,1.89,3.01,3.98,3.01,6.26v.05l-4.61,2.18h-.24v-1.53c0-1.86-.51-3.22-1.52-4.09-1.01-.87-2.24-1.3-3.7-1.3s-2.69.43-3.7,1.3c-1.01.87-1.52,2.23-1.52,4.09v8.25c0,1.86.51,3.22,1.52,4.09,1.01.86,2.24,1.3,3.7,1.3s2.69-.44,3.7-1.31c1.01-.87,1.52-2.01,1.52-3.42l4.61-2.18h.24Z" fill="#fff"/>
    <path d="M188.4,137.03v-23.24h-6.23v-.24l1.96-4.17h4.27v-8.73l4.61-2.18h.24v10.92h6.24v.24l-1.96,4.17h-4.27v21.06l-4.61,2.18h-.24Z" fill="#fff"/>
  </g>
</svg>