<?xml version="1.0" encoding="UTF-8"?>
<svg id="Layer_2" data-name="Layer 2" xmlns="http://www.w3.org/2000/svg" viewBox="0 0 238.26 236.53">
  <g id="Layer_1-2" data-name="Layer 1">
    <polygon id="_13_point_star" data-name="13 point star" points="119.13 19.37 147.85 0 164.28 30.5 198.71 26.69 199.08 61.33 231.34 73.96 215.57 104.81 238.26 130.99 209.97 150.97 217.9 184.69 183.55 189.24 174.9 222.78 142.38 210.85 119.13 236.53 95.88 210.85 63.36 222.78 54.71 189.24 20.37 184.69 28.3 150.97 0 130.99 22.69 104.81 6.92 73.96 39.18 61.33 39.55 26.69 73.98 30.5 90.41 0 119.13 19.37" fill="#a79a34"/>
    <g>
      <path d="M120.66,154.19c0,5.02-1.82,9.42-5.47,13.21-3.65,3.79-8.12,5.68-13.42,5.68h-6.39v-12.64h6.39c1.8,0,3.29-.66,4.47-1.99,1.18-1.32,1.77-2.75,1.77-4.26v-69.44h12.64v69.44ZM120.66,72.11h-12.64v-12.64h12.64v12.64Z" fill="#fff"/>
      <path d="M142.95,147.94h-12.64v-12.78h12.64v12.78Z" fill="#fff"/>
    </g>
  </g>
</svg>