<?xml version="1.0" encoding="UTF-8"?>
<svg id="Layer_1" data-name="Layer 1" xmlns="http://www.w3.org/2000/svg" viewBox="0 0 627.5 167">
  <polygon points="84.56 21.39 100.23 7.88 109.04 26.6 128.85 20.63 129.29 41.31 149.81 43.91 141.8 62.98 159.5 73.71 144.42 87.88 156.22 104.87 136.69 111.68 140.56 132 119.94 130.28 115.21 150.42 97.07 140.46 84.56 156.93 72.05 140.46 53.91 150.42 49.18 130.28 28.56 132 32.43 111.68 12.9 104.87 24.7 87.88 9.62 73.71 27.32 62.98 19.31 43.91 39.83 41.31 40.27 20.63 60.08 26.6 68.89 7.88 84.56 21.39" fill="#a69933"/>
  <g>
    <path d="M70.61,124.6v-.45l3.82-8.18c1.14-.45,2.16-1.05,3.05-1.8,1.86-1.62,2.79-4.13,2.79-7.55v-49.41l8.54-4.04h.45v53.46c0,4.94-1.86,9.24-5.57,12.89-3.47,3.38-7.83,5.08-13.07,5.08ZM80.94,45.04c-1.05-1.08-1.57-2.37-1.57-3.89s.52-2.81,1.57-3.89c1.05-1.08,2.32-1.62,3.82-1.62s2.77.54,3.82,1.62c1.05,1.08,1.57,2.37,1.57,3.89s-.52,2.81-1.57,3.89c-1.05,1.08-2.32,1.62-3.82,1.62s-2.77-.54-3.82-1.62Z" fill="#fff"/>
    <path d="M98.32,103.67c-1.05-1.08-1.57-2.37-1.57-3.89s.52-2.81,1.57-3.89c1.05-1.08,2.32-1.62,3.82-1.62s2.77.54,3.82,1.62c1.05,1.08,1.57,2.37,1.57,3.89s-.52,2.81-1.57,3.89c-1.05,1.08-2.32,1.62-3.82,1.62s-2.77-.54-3.82-1.62Z" fill="#fff"/>
    <path d="M172.41,106.07v-31.89c0-4.62,1.73-8.63,5.2-12.04,3.25-3.16,7.32-4.74,12.21-4.74h5.67v.42l-3.36,7.05h-2.31c-2.52,0-4.65.75-6.4,2.25-1.75,1.5-2.62,3.85-2.62,7.07v28.12l-7.97,3.78h-.42Z" fill="#fff"/>
    <path d="M200.56,88.44v-28.12l7.97-3.78h.42v31.89c0,3.22.87,5.57,2.62,7.07,1.75,1.5,3.88,2.25,6.4,2.25s4.65-.75,6.4-2.25c1.75-1.5,2.62-3.85,2.62-7.07v-28.12l7.97-3.78h.42v49.1c0,4.62-1.74,8.63-5.2,12.04-3.25,3.16-7.32,4.74-12.21,4.74h-12.92v-.42l3.36-7.05h9.57c2.52,0,4.66-.75,6.42-2.27,1.73-1.51,2.6-3.86,2.6-7.05v-3.99c-2.07,2.38-5.08,3.57-9.02,3.57-4.78,0-8.85-1.58-12.21-4.74-3.47-3.3-5.2-7.32-5.2-12.04Z" fill="#fff"/>
    <path d="M279.9,102.29l-7.97,3.78h-.42v-4.41c-2.24,2.38-5.25,3.57-9.02,3.57-5.23,0-9.3-1.58-12.21-4.74-2.91-3.16-4.36-6.9-4.36-11.2s1.58-8.28,4.74-11.41c3.05-3.02,6.99-4.53,11.83-4.53,3.44,0,6.45,1.19,9.02,3.57,0-4.95-.87-8.21-2.6-9.78-1.68-1.51-3.82-2.27-6.42-2.27h-10.2v-.42l3.36-7.05h6.84c4.9,0,8.97,1.58,12.21,4.74,3.47,3.38,5.2,7.4,5.2,12.04v28.12ZM254.14,89.28c0,2.49.76,4.55,2.27,6.17,1.45,1.57,3.5,2.35,6.13,2.35s4.87-.8,6.38-2.39c1.68-1.79,2.52-3.8,2.52-6.04,0-2.52-.87-4.56-2.6-6.13-1.73-1.57-3.82-2.35-6.25-2.35s-4.59.83-6.13,2.48c-1.54,1.65-2.31,3.62-2.31,5.92Z" fill="#fff"/>
    <path d="M290.43,106.07v-31.89c0-4.62,1.73-8.63,5.2-12.04,3.25-3.16,7.32-4.74,12.21-4.74s8.91,1.58,12.21,4.74c3.47,3.36,5.2,7.37,5.2,12.04v28.12l-7.97,3.78h-.42v-31.89c0-3.22-.88-5.57-2.62-7.07-1.75-1.5-3.88-2.25-6.4-2.25s-4.65.75-6.4,2.25c-1.75,1.5-2.62,3.85-2.62,7.07v28.12l-7.97,3.78h-.42Z" fill="#fff"/>
    <path d="M353.54,88.44v-14.27c0-4.62,1.73-8.63,5.2-12.04,3.25-3.16,7.32-4.74,12.21-4.74,3.69,0,6.7,1.19,9.02,3.57v-17.83l7.97-3.78h.42v49.1c0,4.62-1.73,8.63-5.2,12.04-3.25,3.16-7.32,4.74-12.21,4.74s-8.91-1.58-12.21-4.74c-3.47-3.36-5.2-7.37-5.2-12.04ZM361.93,88.44c0,3.22.87,5.57,2.62,7.07,1.75,1.5,3.88,2.25,6.4,2.25s4.65-.75,6.4-2.25c1.75-1.5,2.62-3.85,2.62-7.07v-14.27c0-3.22-.87-5.57-2.62-7.07-1.75-1.5-3.88-2.25-6.4-2.25s-4.65.75-6.4,2.25c-1.75,1.5-2.62,3.85-2.62,7.07v14.27Z" fill="#fff"/>
    <path d="M397.55,88.44v-14.27c0-4.62,1.73-8.63,5.2-12.04,3.24-3.16,7.31-4.74,12.21-4.74s8.91,1.58,12.21,4.74c3.47,3.36,5.2,7.37,5.2,12.04v14.27c0,4.62-1.74,8.63-5.2,12.04-3.25,3.16-7.32,4.74-12.21,4.74s-8.91-1.58-12.21-4.74c-3.47-3.36-5.2-7.37-5.2-12.04ZM405.95,88.44c0,3.22.88,5.57,2.62,7.07,1.75,1.5,3.88,2.25,6.4,2.25s4.65-.75,6.4-2.25c1.75-1.5,2.62-3.85,2.62-7.07v-14.27c0-3.22-.88-5.57-2.62-7.07-1.75-1.5-3.88-2.25-6.4-2.25s-4.65.75-6.4,2.25c-1.75,1.5-2.62,3.85-2.62,7.07v14.27Z" fill="#fff"/>
    <path d="M441.57,106.07v-62.94l7.97-3.78h.42v21.61c2.1-2.38,5.1-3.57,9.02-3.57,4.84,0,8.91,1.58,12.21,4.74,3.47,3.36,5.2,7.37,5.2,12.04v28.12l-7.97,3.78h-.42v-31.89c0-3.22-.88-5.57-2.62-7.07-1.75-1.5-3.88-2.25-6.4-2.25s-4.65.75-6.4,2.25c-1.75,1.5-2.62,3.85-2.62,7.07v28.12l-7.97,3.78h-.42Z" fill="#fff"/>
    <path d="M520.03,85.8v2.64c0,4.62-1.74,8.63-5.2,12.04-3.25,3.16-7.32,4.74-12.21,4.74s-8.91-1.58-12.21-4.74c-3.47-3.36-5.2-7.37-5.2-12.04v-14.27c0-4.62,1.73-8.63,5.2-12.04,3.24-3.16,7.31-4.74,12.21-4.74s8.83,1.58,12.21,4.74c3.47,3.24,5.2,6.85,5.2,10.81v.08l-25.61,20.07c.42.95,1.01,1.75,1.76,2.4,1.76,1.51,3.9,2.27,6.42,2.27s4.65-.76,6.4-2.27c1.75-1.51,2.62-3.48,2.62-5.92l7.97-3.78h.42ZM493.6,84.62l17.54-14.22c-.45-1.37-1.15-2.46-2.1-3.27-1.76-1.51-3.9-2.27-6.42-2.27s-4.65.75-6.4,2.25c-1.75,1.5-2.62,3.85-2.62,7.07v10.45Z" fill="#fff"/>
    <path d="M530.56,106.07v-31.89c0-4.62,1.73-8.63,5.2-12.04,3.24-3.16,7.31-4.74,12.21-4.74h5.67v.42l-3.36,7.05h-2.31c-2.52,0-4.65.75-6.4,2.25-1.75,1.5-2.62,3.85-2.62,7.07v28.12l-7.97,3.78h-.42Z" fill="#fff"/>
    <path d="M564.25,106.07v-40.2h-10.78v-.42l3.4-7.22h7.38v-15.11l7.97-3.78h.42v18.88h10.78v.42l-3.4,7.22h-7.39v36.42l-7.97,3.78h-.42Z" fill="#fff"/>
    <path d="M588.71,88.44v-28.12l7.97-3.78h.42v31.89c0,3.22.87,5.57,2.62,7.07,1.75,1.5,3.88,2.25,6.4,2.25s4.65-.75,6.4-2.25c1.75-1.5,2.62-3.85,2.62-7.07v-28.12l7.97-3.78h.42v49.1c0,4.62-1.74,8.63-5.2,12.04-3.25,3.16-7.32,4.74-12.21,4.74h-12.92v-.42l3.36-7.05h9.57c2.52,0,4.66-.75,6.42-2.27,1.73-1.51,2.6-3.86,2.6-7.05v-3.99c-2.07,2.38-5.08,3.57-9.02,3.57-4.78,0-8.85-1.58-12.21-4.74-3.47-3.3-5.2-7.32-5.2-12.04Z" fill="#fff"/>
  </g>
</svg>