<?xml version="1.0" encoding="UTF-8"?>
<svg id="Layer_1" xmlns="http://www.w3.org/2000/svg" viewBox="0 0 240.62 240.62">
  <polygon points="121.49 21.33 150.21 1.95 166.64 32.45 201.07 28.65 201.44 63.29 233.7 75.92 217.93 106.76 240.62 132.94 212.32 152.92 220.25 186.65 185.91 191.19 177.26 224.74 144.74 212.8 121.49 238.48 98.24 212.8 65.72 224.74 57.07 191.19 22.72 186.65 30.65 152.92 2.36 132.94 25.05 106.76 9.28 75.92 41.54 63.29 41.91 28.65 76.34 32.45 92.77 1.95 121.49 21.33" stroke="#534e22" stroke-miterlimit="10"/>
  <g>
    <path d="M75.68,138.88l-5.39,2.55h-.28v-2.98c-1.51,1.61-3.54,2.41-6.09,2.41-3.53,0-6.28-1.07-8.25-3.2-1.97-2.13-2.95-4.66-2.95-7.57s1.07-5.59,3.2-7.71c2.06-2.04,4.72-3.06,7.99-3.06,2.32,0,4.36.8,6.09,2.41,0-3.34-.59-5.55-1.76-6.6-1.13-1.02-2.58-1.53-4.34-1.53h-6.89v-.28l2.27-4.76h4.62c3.31,0,6.06,1.07,8.25,3.2,2.34,2.29,3.51,5,3.51,8.13v18.99ZM58.27,130.09c0,1.68.51,3.07,1.53,4.17.98,1.06,2.36,1.59,4.14,1.59s3.29-.54,4.31-1.61c1.13-1.21,1.7-2.57,1.7-4.08,0-1.7-.59-3.08-1.76-4.14s-2.58-1.59-4.22-1.59-3.1.56-4.14,1.67c-1.04,1.11-1.56,2.45-1.56,4Z" fill="#fff" stroke="#fff" stroke-miterlimit="10" stroke-width=".5"/>
    <path d="M82.11,129.52v-30.61l5.39-2.55h.28v14.6c1.44-1.61,3.47-2.41,6.09-2.41,3.27,0,6.02,1.07,8.25,3.2,2.34,2.27,3.51,4.98,3.51,8.13v9.64c0,3.12-1.17,5.83-3.51,8.14-2.19,2.14-4.94,3.2-8.25,3.2s-6.02-1.07-8.25-3.2c-2.34-2.27-3.51-4.98-3.51-8.14ZM87.78,129.52c0,2.17.59,3.77,1.77,4.78,1.18,1.01,2.62,1.52,4.32,1.52s3.14-.51,4.32-1.52c1.18-1.01,1.77-2.6,1.77-4.78v-9.64c0-2.17-.59-3.76-1.77-4.78s-2.62-1.52-4.32-1.52-3.14.51-4.32,1.52-1.77,2.6-1.77,4.78v9.64Z" fill="#fff" stroke="#fff" stroke-miterlimit="10" stroke-width=".5"/>
    <path d="M111.82,129.52v-9.64c0-3.12,1.17-5.83,3.51-8.13,2.19-2.14,4.94-3.2,8.25-3.2s6.02,1.07,8.25,3.2c2.34,2.27,3.52,4.98,3.52,8.13v9.64c0,3.12-1.17,5.83-3.52,8.14-2.19,2.14-4.94,3.2-8.25,3.2s-6.02-1.07-8.25-3.2c-2.34-2.27-3.51-4.98-3.51-8.14ZM117.49,129.52c0,2.17.59,3.77,1.77,4.78,1.18,1.01,2.62,1.52,4.32,1.52s3.14-.51,4.32-1.52c1.18-1.01,1.77-2.6,1.77-4.78v-9.64c0-2.17-.59-3.76-1.77-4.78-1.18-1.01-2.62-1.52-4.32-1.52s-3.14.51-4.32,1.52c-1.18,1.01-1.77,2.6-1.77,4.78v9.64Z" fill="#fff" stroke="#fff" stroke-miterlimit="10" stroke-width=".5"/>
    <path d="M165.06,107.98v21.54c0,3.12-1.17,5.83-3.52,8.14-2.19,2.14-4.94,3.2-8.25,3.2s-6.02-1.07-8.25-3.2c-2.34-2.27-3.51-4.98-3.51-8.14v-18.99l5.39-2.55h.28v21.54c0,2.17.59,3.77,1.77,4.78,1.18,1.01,2.62,1.52,4.32,1.52s3.14-.51,4.32-1.52c1.18-1.01,1.77-2.6,1.77-4.78v-18.99l5.39-2.55h.28Z" fill="#fff" stroke="#fff" stroke-miterlimit="10" stroke-width=".5"/>
    <path d="M176.14,141.43v-27.16h-7.29v-.28l2.3-4.87h4.99v-10.2l5.38-2.55h.28v12.76h7.28v.28l-2.29,4.87h-4.99v24.6l-5.38,2.55h-.28Z" fill="#fff" stroke="#fff" stroke-miterlimit="10" stroke-width=".5"/>
  </g>
</svg>