<?xml version="1.0" encoding="UTF-8"?>
<svg id="Layer_2" data-name="Layer 2" xmlns="http://www.w3.org/2000/svg" viewBox="0 0 617.15 149.05">
  <g id="Layer_1-2" data-name="Layer 1">
    <polygon points="74.94 13.51 90.6 0 99.42 18.72 119.23 12.74 119.67 33.43 140.19 36.03 132.18 55.1 149.87 65.83 134.8 79.99 146.6 96.99 127.06 103.8 130.93 124.12 110.32 122.4 105.58 142.54 87.45 132.58 74.94 149.05 62.42 132.58 44.29 142.54 39.56 122.4 18.94 124.12 22.81 103.8 3.28 96.99 15.08 79.99 0 65.83 17.69 55.1 9.68 36.03 30.21 33.43 30.65 12.74 50.45 18.72 59.27 0 74.94 13.51" fill="#a69933"/>
    <g>
      <path d="M60.98,116.72v-.45l3.82-8.18c1.14-.45,2.16-1.05,3.05-1.8,1.86-1.62,2.79-4.13,2.79-7.55v-49.41l8.54-4.04h.45v53.46c0,4.94-1.86,9.24-5.57,12.89-3.47,3.38-7.83,5.08-13.07,5.08ZM71.31,37.16c-1.05-1.08-1.57-2.37-1.57-3.89s.52-2.81,1.57-3.89c1.05-1.08,2.32-1.62,3.82-1.62s2.77.54,3.82,1.62c1.05,1.08,1.57,2.37,1.57,3.89s-.52,2.81-1.57,3.89c-1.05,1.08-2.32,1.62-3.82,1.62s-2.77-.54-3.82-1.62Z" fill="#fff"/>
      <path d="M88.7,95.79c-1.05-1.08-1.57-2.37-1.57-3.89s.52-2.81,1.57-3.89c1.05-1.08,2.32-1.62,3.82-1.62s2.77.54,3.82,1.62c1.05,1.08,1.57,2.37,1.57,3.89s-.52,2.81-1.57,3.89c-1.05,1.08-2.32,1.62-3.82,1.62s-2.77-.54-3.82-1.62Z" fill="#fff"/>
      <path d="M162.78,98.18v-31.89c0-4.62,1.73-8.63,5.2-12.04,3.25-3.16,7.32-4.74,12.21-4.74h5.67v.42l-3.36,7.05h-2.31c-2.52,0-4.65.75-6.4,2.25-1.75,1.5-2.62,3.85-2.62,7.07v28.12l-7.97,3.78h-.42Z" fill="#fff"/>
      <path d="M190.93,80.56v-28.12l7.97-3.78h.42v31.89c0,3.22.87,5.57,2.62,7.07,1.75,1.5,3.88,2.25,6.4,2.25s4.65-.75,6.4-2.25c1.75-1.5,2.62-3.85,2.62-7.07v-28.12l7.97-3.78h.42v49.1c0,4.62-1.74,8.63-5.2,12.04-3.25,3.16-7.32,4.74-12.21,4.74h-12.92v-.42l3.36-7.05h9.57c2.52,0,4.66-.75,6.42-2.27,1.73-1.51,2.6-3.86,2.6-7.05v-3.99c-2.07,2.38-5.08,3.57-9.02,3.57-4.78,0-8.85-1.58-12.21-4.74-3.47-3.3-5.2-7.32-5.2-12.04Z" fill="#fff"/>
      <path d="M270.28,94.41l-7.97,3.78h-.42v-4.41c-2.24,2.38-5.25,3.57-9.02,3.57-5.23,0-9.3-1.58-12.21-4.74-2.91-3.16-4.36-6.9-4.36-11.2s1.58-8.28,4.74-11.41c3.05-3.02,6.99-4.53,11.83-4.53,3.44,0,6.45,1.19,9.02,3.57,0-4.95-.87-8.21-2.6-9.78-1.68-1.51-3.82-2.27-6.42-2.27h-10.2v-.42l3.36-7.05h6.84c4.9,0,8.97,1.58,12.21,4.74,3.47,3.38,5.2,7.4,5.2,12.04v28.12ZM244.51,81.4c0,2.49.76,4.55,2.27,6.17,1.45,1.57,3.5,2.35,6.13,2.35s4.87-.8,6.38-2.39c1.68-1.79,2.52-3.8,2.52-6.04,0-2.52-.87-4.56-2.6-6.13-1.73-1.57-3.82-2.35-6.25-2.35s-4.59.83-6.13,2.48c-1.54,1.65-2.31,3.62-2.31,5.92Z" fill="#fff"/>
      <path d="M280.8,98.18v-31.89c0-4.62,1.73-8.63,5.2-12.04,3.25-3.16,7.32-4.74,12.21-4.74s8.91,1.58,12.21,4.74c3.47,3.36,5.2,7.37,5.2,12.04v28.12l-7.97,3.78h-.42v-31.89c0-3.22-.88-5.57-2.62-7.07-1.75-1.5-3.88-2.25-6.4-2.25s-4.65.75-6.4,2.25c-1.75,1.5-2.62,3.85-2.62,7.07v28.12l-7.97,3.78h-.42Z" fill="#fff"/>
      <path d="M343.92,80.56v-14.27c0-4.62,1.73-8.63,5.2-12.04,3.25-3.16,7.32-4.74,12.21-4.74,3.69,0,6.7,1.19,9.02,3.57v-17.83l7.97-3.78h.42v49.1c0,4.62-1.73,8.63-5.2,12.04-3.25,3.16-7.32,4.74-12.21,4.74s-8.91-1.58-12.21-4.74c-3.47-3.36-5.2-7.37-5.2-12.04ZM352.31,80.56c0,3.22.87,5.57,2.62,7.07,1.75,1.5,3.88,2.25,6.4,2.25s4.65-.75,6.4-2.25c1.75-1.5,2.62-3.85,2.62-7.07v-14.27c0-3.22-.87-5.57-2.62-7.07-1.75-1.5-3.88-2.25-6.4-2.25s-4.65.75-6.4,2.25c-1.75,1.5-2.62,3.85-2.62,7.07v14.27Z" fill="#fff"/>
      <path d="M386.21,80.56v-14.27c0-4.62,1.73-8.63,5.2-12.04,3.25-3.16,7.32-4.74,12.21-4.74s8.91,1.58,12.21,4.74c3.47,3.36,5.2,7.37,5.2,12.04v14.27c0,4.62-1.74,8.63-5.2,12.04-3.25,3.16-7.32,4.74-12.21,4.74s-8.91-1.58-12.21-4.74c-3.47-3.36-5.2-7.37-5.2-12.04ZM394.6,80.56c0,3.22.88,5.57,2.62,7.07,1.75,1.5,3.88,2.25,6.4,2.25s4.65-.75,6.4-2.25c1.75-1.5,2.62-3.85,2.62-7.07v-14.27c0-3.22-.88-5.57-2.62-7.07-1.75-1.5-3.88-2.25-6.4-2.25s-4.65.75-6.4,2.25c-1.75,1.5-2.62,3.85-2.62,7.07v14.27Z" fill="#fff"/>
      <path d="M428.51,98.18v-62.94l7.97-3.78h.42v21.61c2.1-2.38,5.1-3.57,9.02-3.57,4.84,0,8.91,1.58,12.21,4.74,3.47,3.36,5.2,7.37,5.2,12.04v28.12l-7.97,3.78h-.42v-31.89c0-3.22-.88-5.57-2.62-7.07-1.75-1.5-3.88-2.25-6.4-2.25s-4.65.75-6.4,2.25c-1.75,1.5-2.62,3.85-2.62,7.07v28.12l-7.97,3.78h-.42Z" fill="#fff"/>
      <path d="M505.25,77.92v2.64c0,4.62-1.74,8.63-5.2,12.04-3.25,3.16-7.32,4.74-12.21,4.74s-8.91-1.58-12.21-4.74c-3.47-3.36-5.2-7.37-5.2-12.04v-14.27c0-4.62,1.73-8.63,5.2-12.04,3.24-3.16,7.31-4.74,12.21-4.74s8.83,1.58,12.21,4.74c3.47,3.24,5.2,6.85,5.2,10.81v.08l-25.61,20.07c.42.95,1.01,1.75,1.76,2.4,1.76,1.51,3.9,2.27,6.42,2.27s4.65-.76,6.4-2.27c1.75-1.51,2.62-3.48,2.62-5.92l7.97-3.78h.42ZM478.82,76.74l17.54-14.22c-.45-1.37-1.15-2.46-2.1-3.27-1.76-1.51-3.9-2.27-6.42-2.27s-4.65.75-6.4,2.25c-1.75,1.5-2.62,3.85-2.62,7.07v10.45Z" fill="#fff"/>
      <path d="M515.78,98.18v-31.89c0-4.62,1.73-8.63,5.2-12.04,3.24-3.16,7.31-4.74,12.21-4.74h5.67v.42l-3.36,7.05h-2.31c-2.52,0-4.65.75-6.4,2.25-1.75,1.5-2.62,3.85-2.62,7.07v28.12l-7.97,3.78h-.42Z" fill="#fff"/>
      <path d="M549.47,98.18v-40.2h-10.78v-.42l3.4-7.22h7.38v-15.11l7.97-3.78h.42v18.88h10.78v.42l-3.4,7.22h-7.39v36.42l-7.97,3.78h-.42Z" fill="#fff"/>
      <path d="M573.93,80.56v-28.12l7.97-3.78h.42v31.89c0,3.22.87,5.57,2.62,7.07,1.75,1.5,3.88,2.25,6.4,2.25s4.65-.75,6.4-2.25c1.75-1.5,2.62-3.85,2.62-7.07v-28.12l7.97-3.78h.42v49.1c0,4.62-1.74,8.63-5.2,12.04-3.25,3.16-7.32,4.74-12.21,4.74h-12.92v-.42l3.36-7.05h9.57c2.52,0,4.66-.75,6.42-2.27,1.73-1.51,2.6-3.86,2.6-7.05v-3.99c-2.07,2.38-5.08,3.57-9.02,3.57-4.78,0-8.85-1.58-12.21-4.74-3.47-3.3-5.2-7.32-5.2-12.04Z" fill="#fff"/>
    </g>
  </g>
</svg>