<?xml version="1.0" encoding="UTF-8"?>
<svg id="Layer_1" data-name="Layer 1" xmlns="http://www.w3.org/2000/svg" viewBox="0 0 500 500">
  <path d="M394.13,430.85c-7.8,0-14.97,2.69-20.67,7.15l-73.34-73.34c11.18-10.04,19.4-23.32,23.17-38.36l50.5,6.55c.34,4.49,1.94,8.94,4.9,12.78,8.08,10.49,23.14,12.45,33.64,4.37,10.49-8.08,12.45-23.14,4.37-33.64-8.08-10.49-23.14-12.45-33.64-4.37-2.78,2.14-4.93,4.77-6.49,7.67l-51.18-6.64c.13-1.81.22-3.64.22-5.48,0-12.04-2.78-23.44-7.73-33.58l33.14-33.14c18.81,14.48,45.89,13.12,63.13-4.11,18.73-18.73,18.73-49.1,0-67.84-18.73-18.73-49.1-18.73-67.84,0-17,17-18.57,43.59-4.71,62.37l-31.09,30.89c-12.54-17.06-31.36-28.74-54.39-30.95V97.52c23.02-3.06,41.93-23.17,41.93-47.55,0-26.49-21.38-47.97-47.87-47.97s-48.12,21.48-48.12,47.97c0,24.05,17.6,43.96,40.62,47.43v133.64c-19.19,1.51-38.3,10.95-51.15,25.25l-48.47-48.57c2.58-4.31,4.13-9.33,4.13-14.72,0-15.89-12.86-28.78-28.76-28.78s-28.77,12.89-28.77,28.78,12.89,28.78,28.79,28.78c5.64,0,10.88-1.64,15.32-4.45l49.81,49.81c-7.28,11.74-11.5,25.57-11.5,40.4,0,3.87.29,7.67.85,11.38l-66.49,20.89c-9.98-21.54-34.62-32.87-57.87-25.56-25.27,7.94-39.32,34.87-31.38,60.14,7.94,25.27,34.87,39.32,60.14,31.38,22.94-7.21,36.63-30.06,33.03-53.11l65.74-20.66c7.47,22.22,24.82,39.89,46.83,47.79l-10.37,35.58c-4.49-.35-9.14.54-13.38,2.87-11.61,6.37-15.86,20.95-9.49,32.56,6.37,11.61,20.95,15.86,32.56,9.49,11.61-6.37,15.86-20.95,9.49-32.56-1.69-3.07-3.95-5.61-6.58-7.59l10.77-36.96c4.2.71,8.51,1.1,12.91,1.1,14.83,0,28.67-4.22,40.4-11.5l75.45,75.45c-2.65,4.8-4.16,10.31-4.16,16.18,0,18.54,15.03,33.58,33.58,33.58s33.58-15.03,33.58-33.58-15.03-33.58-33.58-33.58ZM406.05,324.56c3.55,4.61,2.69,11.25-1.92,14.8-4.61,3.55-11.25,2.69-14.8-1.92-3.55-4.61-2.69-11.25,1.92-14.8,4.61-3.55,11.25-2.69,14.8,1.92ZM355.82,178.38c13.47-13.47,35.38-13.46,48.84,0,13.47,13.47,13.47,35.38,0,48.84-13.47,13.47-35.38,13.47-48.84,0-13.47-13.47-13.47-35.38,0-48.84ZM118.49,208.35c-8.46,0-15.35-6.89-15.35-15.35s6.89-15.35,15.35-15.35,15.35,6.89,15.35,15.35-6.89,15.35-15.35,15.35ZM73.33,392.97c-18.17,5.71-37.59-4.43-43.3-22.6-5.71-18.17,4.43-37.59,22.6-43.3,18.17-5.71,37.59,4.43,43.3,22.6,5.71,18.17-4.43,37.59-22.6,43.3ZM215.82,448.53c-5.1,2.8-11.53.93-14.33-4.18-2.8-5.1-.93-11.53,4.18-14.33,5.1-2.8,11.53-.93,14.33,4.18,2.8,5.1.93,11.53-4.18,14.33ZM215.77,49.97c0-19.04,15.49-34.54,34.54-34.54s34.54,15.49,34.54,34.54-15.49,34.54-34.54,34.54-34.54-15.49-34.54-34.54ZM248.86,370.86c-34.91,0-63.32-28.4-63.32-63.32s28.4-63.32,63.32-63.32,63.32,28.4,63.32,63.32-28.4,63.32-63.32,63.32ZM394.13,484.57c-11.11,0-20.15-9.04-20.15-20.15s9.04-20.15,20.15-20.15,20.15,9.04,20.15,20.15-9.04,20.15-20.15,20.15Z" fill="#fff"/>
  <circle cx="249.5" cy="49.5" r="36.5" fill="#fff"/>
  <circle cx="119.5" cy="191.5" r="32.5" fill="#fff"/>
  <circle cx="63.5" cy="361.5" r="36.5" fill="#fff"/>
  <circle cx="379.5" cy="202.5" r="36.5" fill="#fff"/>
  <circle cx="400.5" cy="331.5" r="29.5" fill="#fff"/>
  <circle cx="392.5" cy="461.5" r="36.5" fill="#fff"/>
  <circle cx="210" cy="439" r="25" fill="#fff"/>
  <path id="instagram" d="M380.7,182.48c6.49,0,7.26.02,9.82.14,1.54.02,3.07.3,4.51.84,2.12.82,3.79,2.49,4.61,4.61.54,1.44.82,2.97.84,4.51.12,2.56.14,3.33.14,9.82s-.02,7.26-.14,9.82c-.02,1.54-.3,3.07-.84,4.51-.82,2.12-2.49,3.79-4.61,4.61-1.44.54-2.97.82-4.51.84-2.56.12-3.33.14-9.82.14s-7.26-.02-9.82-.14c-1.54-.02-3.07-.3-4.51-.84-2.12-.82-3.79-2.49-4.61-4.61-.54-1.44-.82-2.97-.84-4.51-.12-2.56-.14-3.33-.14-9.82s.02-7.26.14-9.82c.02-1.54.3-3.07.84-4.51.82-2.12,2.49-3.79,4.61-4.61,1.44-.54,2.97-.82,4.51-.84,2.56-.12,3.33-.14,9.82-.14M380.7,178.11c-6.6,0-7.43.03-10.02.15-2.02.04-4.01.42-5.9,1.13-3.26,1.26-5.84,3.84-7.11,7.11-.71,1.89-1.09,3.88-1.13,5.9-.12,2.59-.15,3.42-.15,10.02s.03,7.43.15,10.02c.04,2.02.42,4.01,1.13,5.9,1.26,3.26,3.84,5.84,7.11,7.11,1.89.71,3.88,1.09,5.9,1.13,2.59.12,3.42.15,10.02.15s7.43-.03,10.02-.15c2.02-.04,4.01-.42,5.9-1.13,3.26-1.26,5.84-3.84,7.11-7.11.71-1.89,1.09-3.88,1.13-5.9.12-2.59.15-3.42.15-10.02s-.03-7.43-.15-10.02c-.04-2.02-.42-4.01-1.13-5.9-1.26-3.26-3.84-5.84-7.11-7.11-1.89-.71-3.88-1.09-5.9-1.13-2.59-.12-3.42-.15-10.02-.15ZM380.7,189.93c-6.89,0-12.48,5.59-12.48,12.48s5.59,12.48,12.48,12.48,12.48-5.59,12.48-12.48-5.59-12.48-12.48-12.48h0ZM380.7,210.51c-4.47,0-8.1-3.63-8.1-8.1s3.63-8.1,8.1-8.1,8.1,3.63,8.1,8.1-3.63,8.1-8.1,8.1ZM393.67,186.52c-1.61,0-2.92,1.31-2.92,2.92,0,1.61,1.31,2.92,2.92,2.92s2.92-1.31,2.92-2.92-1.31-2.92-2.92-2.92h0Z" fill="#2098f3"/>
  <g id="Ecommerce">
    <path d="M57.38,366.09c-2.17,0-3.94,1.77-3.94,3.94s1.77,3.94,3.94,3.94,3.94-1.77,3.94-3.94-1.77-3.94-3.94-3.94Z" fill="#2098f3"/>
    <path d="M73.16,366.09c-2.17,0-3.94,1.77-3.94,3.94s1.77,3.94,3.94,3.94,3.94-1.77,3.94-3.94-1.77-3.94-3.94-3.94Z" fill="#2098f3"/>
    <path d="M76.08,349.72l-22.42-2.66v-1.86c0-.51-.33-.95-.81-1.1l-6.63-2.04c-.61-.19-1.25.15-1.44.76-.19.61.15,1.25.76,1.44l5.81,1.79v13.33c0,1.98,1.6,4.1,3.98,4.1h16.83c3.04,0,4.93-2.77,4.93-5.33v-7.28c0-.58-.44-1.08-1.02-1.14Z" fill="#2098f3"/>
  </g>
  <g id="credit_card" data-name="credit card">
    <path d="M233.21,32h30.14c2.33,0,4.22,1.89,4.22,4.22v21.91c0,2.33-1.89,4.22-4.22,4.22h-30.14c-2.33,0-4.22-1.89-4.22-4.22v-21.92c0-2.33,1.89-4.22,4.22-4.22Z" fill="#ff4b3e"/>
  </g>
  <g id="credit_card-2" data-name="credit card">
    <rect x="233.15" y="39.93" width="30.26" height="6.6" fill="#fff"/>
    <path d="M260.41,55.09h-12.65c-.71,0-1.29-.58-1.29-1.29s.58-1.29,1.29-1.29h12.65c.71,0,1.29.58,1.29,1.29s-.58,1.29-1.29,1.29Z" fill="#fff"/>
    <path d="M241.76,55.09h-3.58c-.71,0-1.29-.58-1.29-1.29s.58-1.29,1.29-1.29h3.58c.71,0,1.29.58,1.29,1.29s-.58,1.29-1.29,1.29Z" fill="#fff"/>
  </g>
  <g id="Phone">
    <path d="M129.65,197.5l-.5-.25c-1.43-.73-2.78-1.43-3.81-1.43-.65,0-1.05.26-1.27.49-.34.34-.63.76-.85,1.13-.85-.42-2.39-1.34-4.12-3.07-1.73-1.73-2.64-3.27-3.07-4.12.36-.22.79-.51,1.12-.85,1.1-1.1.15-2.94-.94-5.08l-.25-.5c-.73-1.46-1.42-2.84-3.07-2.84-.31,0-.63.05-.99.16-2.12.64-3.67,3.26-3.95,5.43-.28,2.19,1.83,7.74,6.53,12.44,4.77,4.77,9.89,6.55,12,6.55.16,0,.31-.01.44-.03,2.17-.28,4.79-1.83,5.43-3.95.71-2.36-1.09-3.26-2.69-4.06Z" fill="#ff4b3e"/>
  </g>
  <path d="M392,455.44c-3.31,0-6,2.69-6,6s2.69,6,6,6,6-2.69,6-6-2.69-6-6-6ZM392.3,464.41v.63h-.6v-.6c-.62-.01-1.26-.16-1.8-.43l.27-.99c.57.22,1.34.46,1.93.32.69-.16.83-.87.07-1.21-.56-.26-2.27-.48-2.27-1.94,0-.82.63-1.55,1.79-1.71v-.64h.6v.61c.43.01.92.09,1.47.25l-.22.99c-.46-.16-.97-.31-1.47-.28-.89.05-.97.83-.35,1.15,1.03.48,2.36.84,2.36,2.13,0,1.03-.8,1.58-1.8,1.72ZM374,450.94v21h36v-21h-36ZM407,465.07c-1.73.76-3.11,2.14-3.87,3.87h-22.27c-.76-1.73-2.14-3.11-3.87-3.87v-7.27c1.73-.76,3.11-2.14,3.87-3.87h22.27c.76,1.73,2.14,3.11,3.87,3.87v7.27Z" fill="#6fa040"/>
  <path id="web_hosting" data-name="web hosting" d="M414,329.65h-6.03c-.13-4.89-1.26-9.01-2.99-11.48,4.96,1.6,8.63,6.09,9.02,11.48ZM401,343.64c-2.32,0-4.88-4.93-5.09-12.11h10.18c-.21,7.18-2.77,12.11-5.09,12.11ZM395.91,329.65c.21-7.18,2.77-12.11,5.09-12.11s4.88,4.93,5.09,12.11h-10.18ZM397.02,318.17c-1.73,2.47-2.86,6.59-2.99,11.48h-6.03c.39-5.39,4.05-9.88,9.02-11.48ZM388,331.53h6.03c.13,4.89,1.26,9.01,2.99,11.48-4.96-1.6-8.63-6.09-9.02-11.48ZM404.98,343.01c1.73-2.47,2.86-6.59,2.99-11.48h6.03c-.39,5.39-4.05,9.88-9.02,11.48Z" fill="#2098f3"/>
  <g>
    <path d="M218.01,298.29v9.31h-3.96v-9.31l-7.05-11.24h4.52l4.52,7.22,4.49-7.22h4.52l-7.05,11.24Z" fill="#fff"/>
    <path d="M235.63,286.75c6.34,0,10.72,4.73,10.72,10.57s-4.37,10.57-10.72,10.57-10.72-4.73-10.72-10.57,4.37-10.57,10.72-10.57ZM235.63,304.36c3.88,0,6.75-3.17,6.75-7.05s-2.88-7.05-6.75-7.05-6.75,3.17-6.75,7.05,2.88,7.05,6.75,7.05Z" fill="#fff"/>
    <path d="M252.22,305.77c-1.7-1.53-2.64-3.7-2.64-6.84v-11.89h3.96v12.18c0,1.88.5,3.02,1.35,3.82.88.85,2.11,1.32,3.49,1.32s2.61-.47,3.49-1.32c.85-.79,1.35-1.94,1.35-3.82v-12.18h3.96v11.89c0,3.14-.94,5.31-2.64,6.84-1.58,1.41-3.85,2.11-6.17,2.11s-4.58-.71-6.17-2.11Z" fill="#fff"/>
    <path d="M275.71,298.49v9.1h-3.96v-20.55h7.49c2.11,0,3.46.59,4.49,1.53,1.12,1.06,1.82,2.55,1.82,4.2s-.7,3.14-1.82,4.2c-.56.53-1.23.94-2.06,1.2l7.69,9.42h-4.9l-7.31-9.1h-1.44ZM279,294.97c1.15,0,1.64-.23,2-.62.35-.38.59-.97.59-1.56,0-.62-.24-1.2-.59-1.59-.35-.38-.85-.65-2-.65h-3.29v4.4h3.29Z" fill="#fff"/>
  </g>
  <g>
    <path d="M212.85,319.14c1.42,0,2.21.34,2.83.88.7.61,1.17,1.51,1.17,2.54,0,.83-.4,1.67-.81,2.11,1.12.56,1.89,1.82,1.89,3.22,0,1.06-.45,2.04-1.15,2.72-.7.7-1.67,1.13-3.29,1.13h-4.92v-12.6h4.29ZM211,324.01h1.71c.76,0,1.1-.18,1.35-.45.22-.23.36-.56.36-.9s-.14-.67-.36-.9c-.25-.27-.59-.45-1.35-.45h-1.71v2.7ZM213.43,329.59c.85,0,1.31-.22,1.62-.56.29-.31.45-.7.45-1.15s-.16-.85-.45-1.15c-.31-.34-.77-.56-1.62-.56h-2.43v3.42h2.43Z" fill="#fff"/>
    <path d="M221.35,330.63c-1.04-.94-1.62-2.27-1.62-4.2v-7.29h2.43v7.47c0,1.15.31,1.85.83,2.34.54.52,1.3.81,2.14.81s1.6-.29,2.14-.81c.52-.49.83-1.19.83-2.34v-7.47h2.43v7.29c0,1.93-.58,3.26-1.62,4.2-.97.86-2.36,1.3-3.78,1.3s-2.81-.43-3.78-1.3Z" fill="#fff"/>
    <path d="M233.64,328.38c.72.79,1.82,1.39,2.97,1.39,1.08,0,1.84-.67,1.84-1.58,0-1.62-2.34-1.82-4.03-2.81-.99-.58-1.78-1.44-1.78-2.86,0-2.25,2.07-3.55,4.16-3.55,1.28,0,2.47.31,3.65,1.19l-1.26,1.8c-.5-.47-1.35-.83-2.18-.83-.92,0-1.94.4-1.94,1.37,0,2.04,5.82,1.4,5.82,5.65,0,2.23-2,3.78-4.27,3.78-1.69,0-3.26-.7-4.56-1.89l1.58-1.66Z" fill="#fff"/>
    <path d="M242.95,319.14h2.43v12.6h-2.43v-12.6Z" fill="#fff"/>
    <path d="M248.26,319.14h1.71l7.02,8.21v-8.21h2.43v12.6h-1.71l-7.02-8.21v8.21h-2.43v-12.6Z" fill="#fff"/>
    <path d="M264.73,321.3v2.61h3.87v2.16h-3.87v3.51h5.31v2.16h-7.74v-12.6h7.56v2.16h-5.13Z" fill="#fff"/>
    <path d="M272.79,328.38c.72.79,1.82,1.39,2.97,1.39,1.08,0,1.84-.67,1.84-1.58,0-1.62-2.34-1.82-4.03-2.81-.99-.58-1.78-1.44-1.78-2.86,0-2.25,2.07-3.55,4.16-3.55,1.28,0,2.47.31,3.66,1.19l-1.26,1.8c-.5-.47-1.35-.83-2.18-.83-.92,0-1.94.4-1.94,1.37,0,2.04,5.82,1.4,5.82,5.65,0,2.23-2,3.78-4.27,3.78-1.69,0-3.26-.7-4.55-1.89l1.58-1.66Z" fill="#fff"/>
    <path d="M282.15,328.38c.72.79,1.82,1.39,2.97,1.39,1.08,0,1.84-.67,1.84-1.58,0-1.62-2.34-1.82-4.03-2.81-.99-.58-1.78-1.44-1.78-2.86,0-2.25,2.07-3.55,4.16-3.55,1.28,0,2.47.31,3.65,1.19l-1.26,1.8c-.5-.47-1.35-.83-2.18-.83-.92,0-1.94.4-1.94,1.37,0,2.04,5.82,1.4,5.82,5.65,0,2.23-2,3.78-4.27,3.78-1.69,0-3.26-.7-4.56-1.89l1.58-1.66Z" fill="#fff"/>
  </g>
  <g>
    <rect x="197.24" y="431.75" width="7.92" height="2.98" fill="#fff"/>
    <rect x="209.47" y="431.68" width="11.52" height="9.65" fill="#fff"/>
    <path d="M220.67,430.3h-10.9c-2.04,0-2.04,1.56-2.04,2.15v8.46c0,.59,0,2.15,2.03,2.15h10.9c.53,0,2.03,0,2.03-2.15v-8.46c.01-2.15-1.49-2.15-2.01-2.15ZM221,441.33h-11.53v-9.65h11.52v9.65h.01Z" fill="#ff4b3e"/>
    <path d="M218.26,444.35h-16.29v-7.84h1.04v-.79h2.07c.37,0,1.47.16,1.47-1.22v-2.47c0-1.22-1.37-1.22-1.74-1.22h-7.32c-1.49,0-1.49,1.26-1.49,1.49v2.19c0,.23,0,1.22,1.74,1.22h1.8v.79h1.05v7.85h-.77c-2.53,0-2.58,0-2.58,1.64v3.38c0,1.63.03,1.63,2.58,1.63h18.44q2.58,0,2.58-1.63v-2.58q0-2.44-2.58-2.44ZM197.24,434.73v-2.98h7.92v2.98h-7.92ZM219.51,449.12h-2.88v-2.5h2.88v2.5ZM215.87,449.12h-2.88v-2.5h2.88v2.5ZM212.11,449.12h-2.88v-2.5h2.88v2.5Z" fill="#ff4b3e"/>
  </g>
</svg>