<?xml version="1.0" encoding="UTF-8"?>
<svg id="Layer_1" data-name="Layer 1" xmlns="http://www.w3.org/2000/svg" viewBox="0 0 240.62 240.62">
  <polygon points="121.49 21.33 150.21 1.95 166.64 32.45 201.07 28.65 201.44 63.29 233.7 75.92 217.93 106.76 240.62 132.94 212.32 152.92 220.25 186.65 185.91 191.19 177.26 224.74 144.74 212.8 121.49 238.48 98.24 212.8 65.72 224.74 57.07 191.19 22.72 186.65 30.65 152.92 2.36 132.94 25.05 106.76 9.28 75.92 41.54 63.29 41.91 28.65 76.34 32.45 92.77 1.95 121.49 21.33" stroke="#534e22" stroke-miterlimit="10"/>
  <g>
    <path d="M59.72,116.03v7.73c0,2.5-.94,4.67-2.82,6.52-1.76,1.71-3.96,2.57-6.61,2.57-2,0-3.63-.64-4.89-1.93v9.66l-4.32,2.04h-.23v-26.59c0-2.5.94-4.67,2.82-6.52,1.76-1.71,3.96-2.57,6.61-2.57s4.83.86,6.61,2.57c1.88,1.82,2.82,3.99,2.82,6.52ZM55.18,116.03c0-1.74-.47-3.02-1.42-3.83s-2.1-1.22-3.47-1.22-2.52.41-3.47,1.22-1.42,2.09-1.42,3.83v7.73c0,1.74.47,3.02,1.42,3.83s2.1,1.21,3.47,1.21,2.52-.4,3.47-1.21,1.42-2.09,1.42-3.83v-7.73Z" fill="#fff" stroke="#fff" stroke-miterlimit="10" stroke-width=".5"/>
    <path d="M64.68,123.76v-7.73c0-2.5.94-4.67,2.82-6.52,1.76-1.71,3.96-2.57,6.61-2.57s4.83.86,6.61,2.57c1.88,1.82,2.82,3.99,2.82,6.52v7.73c0,2.5-.94,4.67-2.82,6.52-1.76,1.71-3.96,2.57-6.61,2.57s-4.83-.86-6.61-2.57c-1.88-1.82-2.82-3.99-2.82-6.52ZM69.22,123.76c0,1.74.47,3.02,1.42,3.83s2.1,1.21,3.47,1.21,2.52-.4,3.47-1.21,1.42-2.09,1.42-3.83v-7.73c0-1.74-.47-3.02-1.42-3.83s-2.1-1.22-3.47-1.22-2.52.41-3.47,1.22-1.42,2.09-1.42,3.83v7.73Z" fill="#fff" stroke="#fff" stroke-miterlimit="10" stroke-width=".5"/>
    <path d="M88.5,133.3v-17.27c0-2.5.94-4.67,2.82-6.52,1.76-1.71,3.96-2.57,6.61-2.57h3.07v.23l-1.82,3.82h-1.25c-1.36,0-2.52.41-3.47,1.22s-1.42,2.09-1.42,3.83v15.23l-4.32,2.04h-.23Z" fill="#fff" stroke="#fff" stroke-miterlimit="10" stroke-width=".5"/>
    <path d="M107.86,133.3v-21.77h-5.84v-.23l1.84-3.91h4v-8.18l4.32-2.05h.23v10.23h5.84v.23l-1.84,3.91h-4v19.72l-4.32,2.04h-.23Z" fill="#fff" stroke="#fff" stroke-miterlimit="10" stroke-width=".5"/>
    <path d="M123.35,133.3v-19.5h-3.41v-.23l1.84-3.91h1.57v-2.95c0-2.5.94-4.67,2.82-6.52,1.76-1.71,3.96-2.57,6.61-2.57h3.07v.23l-1.82,3.82h-1.25c-1.36,0-2.52.41-3.48,1.23-.94.82-1.41,2.09-1.41,3.82v2.95h7.52v.23l-1.84,3.91h-5.68v17.45l-4.32,2.04h-.23Z" fill="#fff" stroke="#fff" stroke-miterlimit="10" stroke-width=".5"/>
    <path d="M139.48,123.76v-7.73c0-2.5.94-4.67,2.82-6.52,1.76-1.71,3.96-2.57,6.61-2.57s4.83.86,6.61,2.57c1.88,1.82,2.82,3.99,2.82,6.52v7.73c0,2.5-.94,4.67-2.82,6.52-1.76,1.71-3.96,2.57-6.61,2.57s-4.83-.86-6.61-2.57c-1.88-1.82-2.82-3.99-2.82-6.52ZM144.03,123.76c0,1.74.47,3.02,1.42,3.83.95.81,2.1,1.21,3.46,1.21s2.52-.4,3.47-1.21c.95-.81,1.42-2.09,1.42-3.83v-7.73c0-1.74-.47-3.02-1.42-3.83-.95-.81-2.1-1.22-3.47-1.22s-2.52.41-3.46,1.22c-.95.81-1.42,2.09-1.42,3.83v7.73Z" fill="#fff" stroke="#fff" stroke-miterlimit="10" stroke-width=".5"/>
    <path d="M164.44,133.3v-34.09l4.32-2.05h.23v34.09l-4.32,2.04h-.23Z" fill="#fff" stroke="#fff" stroke-miterlimit="10" stroke-width=".5"/>
    <path d="M176.55,102.38c-.53-.55-.8-1.2-.8-1.97s.27-1.42.8-1.97c.53-.54,1.17-.82,1.93-.82s1.4.27,1.93.82c.53.55.79,1.2.79,1.97s-.27,1.42-.79,1.97c-.53.55-1.17.82-1.93.82s-1.4-.27-1.93-.82ZM176.21,133.3v-24.77l4.32-2.05h.23v24.77l-4.32,2.04h-.23Z" fill="#fff" stroke="#fff" stroke-miterlimit="10" stroke-width=".5"/>
    <path d="M186.85,123.76v-7.73c0-2.5.94-4.67,2.82-6.52,1.76-1.71,3.96-2.57,6.61-2.57s4.83.86,6.61,2.57c1.88,1.82,2.82,3.99,2.82,6.52v7.73c0,2.5-.94,4.67-2.82,6.52-1.76,1.71-3.96,2.57-6.61,2.57s-4.83-.86-6.61-2.57c-1.88-1.82-2.82-3.99-2.82-6.52ZM191.39,123.76c0,1.74.47,3.02,1.42,3.83.95.81,2.1,1.21,3.46,1.21s2.52-.4,3.47-1.21c.95-.81,1.42-2.09,1.42-3.83v-7.73c0-1.74-.47-3.02-1.42-3.83-.95-.81-2.1-1.22-3.47-1.22s-2.52.41-3.46,1.22c-.95.81-1.42,2.09-1.42,3.83v7.73Z" fill="#fff" stroke="#fff" stroke-miterlimit="10" stroke-width=".5"/>
  </g>
</svg>