<?xml version="1.0" encoding="UTF-8"?>
<svg id="Layer_1" xmlns="http://www.w3.org/2000/svg" viewBox="0 0 242.63 236.55">
  <polygon points="121.32 34.15 148.06 1.11 157.82 42.48 196.25 24.31 187.09 65.82 229.6 66.13 203.33 99.55 241.5 118.27 203.33 136.99 229.6 170.42 187.09 170.73 196.25 212.24 157.82 194.07 148.06 235.44 121.32 202.4 94.57 235.44 84.82 194.07 46.38 212.24 55.54 170.73 13.04 170.42 39.3 136.99 1.14 118.27 39.3 99.55 13.04 66.13 55.54 65.82 46.38 24.31 84.82 42.48 94.57 1.11 121.32 34.15" stroke="#534e22" stroke-miterlimit="10"/>
  <g>
    <path d="M89.42,130.81l-3.79,1.79h-.2v-2.09c-1.06,1.13-2.49,1.69-4.29,1.69-2.49,0-4.42-.75-5.8-2.25-1.38-1.5-2.07-3.28-2.07-5.32s.75-3.93,2.25-5.42c1.45-1.44,3.32-2.15,5.62-2.15,1.63,0,3.06.56,4.29,1.69,0-2.35-.41-3.9-1.24-4.65-.8-.72-1.81-1.08-3.05-1.08h-4.84v-.2l1.59-3.35h3.25c2.33,0,4.26.75,5.8,2.25,1.65,1.61,2.47,3.52,2.47,5.72v13.36ZM77.18,124.63c0,1.18.36,2.16,1.08,2.93.69.74,1.66,1.12,2.91,1.12s2.31-.38,3.03-1.14c.8-.85,1.2-1.81,1.2-2.87,0-1.2-.41-2.17-1.24-2.91s-1.81-1.12-2.97-1.12-2.18.39-2.91,1.18c-.73.78-1.1,1.72-1.1,2.81Z" fill="#fff" stroke="#fff" stroke-miterlimit="10" stroke-width=".5"/>
    <path d="M93.95,124.23v-21.53l3.79-1.79h.2v10.27c1.01-1.13,2.44-1.69,4.29-1.69,2.3,0,4.23.75,5.8,2.25,1.65,1.59,2.47,3.5,2.47,5.72v6.78c0,2.19-.82,4.1-2.47,5.72-1.54,1.5-3.48,2.25-5.8,2.25s-4.23-.75-5.8-2.25c-1.65-1.59-2.47-3.5-2.47-5.72ZM97.94,124.23c0,1.53.42,2.65,1.25,3.36.83.71,1.84,1.07,3.04,1.07s2.21-.36,3.04-1.07c.83-.71,1.25-1.83,1.25-3.36v-6.78c0-1.53-.42-2.65-1.25-3.36s-1.84-1.07-3.04-1.07-2.21.36-3.04,1.07-1.25,1.83-1.25,3.36v6.78Z" fill="#fff" stroke="#fff" stroke-miterlimit="10" stroke-width=".5"/>
    <path d="M114.85,124.23v-6.78c0-2.19.82-4.1,2.47-5.72,1.54-1.5,3.48-2.25,5.8-2.25s4.23.75,5.8,2.25c1.65,1.59,2.47,3.5,2.47,5.72v6.78c0,2.19-.82,4.1-2.47,5.72-1.54,1.5-3.48,2.25-5.8,2.25s-4.23-.75-5.8-2.25c-1.65-1.59-2.47-3.5-2.47-5.72ZM118.83,124.23c0,1.53.42,2.65,1.25,3.36.83.71,1.84,1.07,3.04,1.07s2.21-.36,3.04-1.07c.83-.71,1.25-1.83,1.25-3.36v-6.78c0-1.53-.42-2.65-1.25-3.36-.83-.71-1.84-1.07-3.04-1.07s-2.21.36-3.04,1.07c-.83.71-1.25,1.83-1.25,3.36v6.78Z" fill="#fff" stroke="#fff" stroke-miterlimit="10" stroke-width=".5"/>
    <path d="M152.29,109.08v15.15c0,2.19-.82,4.1-2.47,5.72-1.54,1.5-3.48,2.25-5.8,2.25s-4.23-.75-5.8-2.25c-1.65-1.59-2.47-3.5-2.47-5.72v-13.36l3.79-1.79h.2v15.15c0,1.53.42,2.65,1.25,3.36.83.71,1.84,1.07,3.04,1.07s2.21-.36,3.04-1.07c.83-.71,1.25-1.83,1.25-3.36v-13.36l3.79-1.79h.2Z" fill="#fff" stroke="#fff" stroke-miterlimit="10" stroke-width=".5"/>
    <path d="M160.08,132.61v-19.1h-5.12v-.2l1.62-3.43h3.51v-7.18l3.79-1.79h.2v8.97h5.12v.2l-1.61,3.43h-3.51v17.3l-3.79,1.79h-.2Z" fill="#fff" stroke="#fff" stroke-miterlimit="10" stroke-width=".5"/>
  </g>
</svg>