<?xml version="1.0" encoding="UTF-8"?>
<svg id="Layer_2" data-name="Layer 2" xmlns="http://www.w3.org/2000/svg" viewBox="0 0 155.77 35.17">
  <g id="understory_Image" data-name="understory Image">
    <g>
      <path d="M12,29.17c.56,0,1-.44,1-1v-11h2v11c0,1.66-1.34,3-3,3H4c-1.66,0-3-1.34-3-3v-11h2v11c0,.56.44,1,1,1h8Z" fill="#fff"/>
      <path d="M20,19.17c-.56,0-1,.44-1,1v11h-2v-11c0-1.66,1.34-3,3-3h8c1.66,0,3,1.34,3,3v11h-2v-11c0-.56-.44-1-1-1h-8Z" fill="#fff"/>
      <path d="M47,28.17c0,1.66-1.34,3-3,3h-11v-14h11c1.66,0,3,1.34,3,3v8ZM45,20.17c0-.56-.44-1-1-1h-9v10h9c.56,0,1-.44,1-1v-8Z" fill="#fff"/>
      <path d="M50.8,23.17h11.6l-.6,2h-11v4h11.6v2h-13.6v-14h13.6v2h-11.6v4Z" fill="#fff"/>
      <path d="M66,25.17v6h-2v-14h11c1.66,0,3,1.34,3,3v2c0,1.1-.6,2.08-1.48,2.6.58.74,1.48,2.22,1.48,4.4v2h-2v-2c0-1.6-1.2-4-2-4h-8ZM76,20.17c0-.56-.44-1-1-1h-9v4h9c.56,0,1-.44,1-1v-2Z" fill="#fff"/>
      <path d="M81.4,20.97c0,2.2,12.2,2.3,12.2,6v1.2c0,1.66-1.34,3-3,3h-10.6l-.6-2h11.2c.56,0,1-.44,1-1v-.8c0-2.2-12.2-2.1-12.2-6v-1.2c0-1.66,1.34-3,3-3h10.6l.6,2h-11.2c-.56,0-1,.44-1,1v.8Z" fill="#fff"/>
      <path d="M94.6,17.17h14v2h-6v12h-2v-12h-6v-2Z" fill="#fff"/>
      <path d="M112.8,31.17c-1.66,0-3-1.34-3-3v-8c0-1.66,1.34-3,3-3h8c1.66,0,3,1.34,3,3v8c0,1.66-1.34,3-3,3h-8ZM120.8,29.17c.56,0,1-.44,1-1v-8c0-.56-.44-1-1-1h-8c-.56,0-1,.44-1,1v8c0,.56.44,1,1,1h8Z" fill="#fff"/>
      <path d="M127.6,25.17v6h-2v-14h11c1.66,0,3,1.34,3,3v2c0,1.1-.6,2.08-1.48,2.6.58.74,1.48,2.22,1.48,4.4v2h-2v-2c0-1.6-1.2-4-2-4h-8ZM137.6,20.17c0-.56-.44-1-1-1h-9v4h9c.56,0,1-.44,1-1v-2Z" fill="#fff"/>
      <path d="M149.2,25.17v6h-2v-6h-3c-1.66,0-3-1.34-3-3v-5h2v5c0,.56.44,1,1,1h8c.56,0,1-.44,1-1v-5h2v5c0,1.66-1.34,3-3,3h-3Z" fill="#fff"/>
    </g>
    <g>
      <path d="M1.36.99h.71v3.97h3.9v.66H1.36V.99Z" fill="#fff"/>
      <path d="M8.17,5.63c-.59,0-1.06-.44-1.06-.99V1.99c0-.55.48-.99,1.06-.99h2.84c.59,0,1.06.44,1.06.99v2.65c0,.55-.48.99-1.06.99h-2.84ZM11,4.97c.2,0,.35-.15.35-.33V1.99c0-.19-.16-.33-.35-.33h-2.84c-.2,0-.35.15-.35.33v2.65c0,.19.16.33.35.33h2.84Z" fill="#fff"/>
      <path d="M17.32,4.97c.2,0,.35-.15.35-.33V.99h.71v3.64c0,.55-.48.99-1.06.99h-2.84c-.59,0-1.06-.44-1.06-.99V.99h.71v3.64c0,.19.16.33.35.33h2.84Z" fill="#fff"/>
      <path d="M22.99.99h3.9c.59,0,1.06.44,1.06.99v.6c0,.26-.11.49-.27.66.16.18.27.41.27.66v.73c0,.55-.48.99-1.06.99h-3.9V.99ZM26.89,2.91c.2,0,.35-.15.35-.33v-.6c0-.19-.16-.33-.35-.33h-3.19v1.26h3.19ZM23.7,3.58v1.39h3.19c.2,0,.35-.15.35-.33v-.73c0-.19-.16-.33-.35-.33h-3.19Z" fill="#fff"/>
      <path d="M30.01,3.64v1.99h-.71V.99h3.9c.59,0,1.06.44,1.06.99v.66c0,.36-.21.69-.52.86.21.25.52.73.52,1.46v.66h-.71v-.66c0-.53-.43-1.32-.71-1.32h-2.84ZM33.56,1.99c0-.19-.16-.33-.35-.33h-3.19v1.32h3.19c.2,0,.35-.15.35-.33v-.66Z" fill="#fff"/>
      <path d="M36.33,2.98h4.12l-.21.66h-3.9v1.32h4.12v.66h-4.82V.99h4.82v.66h-4.12v1.32Z" fill="#fff"/>
      <path d="M41.72.99h.71v4.64h-.71V.99Z" fill="#fff"/>
      <path d="M44.91,1.66c-.2,0-.35.15-.35.33v3.64h-.71V1.99c0-.55.48-.99,1.06-.99h2.84c.59,0,1.06.44,1.06.99v3.64h-.71V1.99c0-.19-.16-.33-.35-.33h-2.84Z" fill="#fff"/>
      <path d="M50.23.99h.71v4.64h-.71V.99Z" fill="#fff"/>
      <path d="M53.42,1.66c-.2,0-.35.15-.35.33v3.64h-.71V1.99c0-.55.48-.99,1.06-.99h2.84c.59,0,1.06.44,1.06.99v3.64h-.71V1.99c0-.19-.16-.33-.35-.33h-2.84Z" fill="#fff"/>
      <path d="M59.73,5.63c-.59,0-1.06-.44-1.06-.99V1.99c0-.55.48-.99,1.06-.99h3.69l.21.66h-3.9c-.2,0-.35.15-.35.33v2.65c0,.19.16.33.35.33h3.19v-1.99h.71v2.65h-3.9Z" fill="#fff"/>
      <path d="M65.76,2.98h4.12l-.21.66h-3.9v1.32h4.12v.66h-4.82V.99h4.82v.66h-4.12v1.32Z" fill="#fff"/>
      <path d="M71.86,3.64v1.99h-.71V.99h3.9c.59,0,1.06.44,1.06.99v.66c0,.36-.21.69-.52.86.21.25.52.73.52,1.46v.66h-.71v-.66c0-.53-.43-1.32-.71-1.32h-2.84ZM75.41,1.99c0-.19-.16-.33-.35-.33h-3.19v1.32h3.19c.2,0,.35-.15.35-.33v-.66Z" fill="#fff"/>
      <path d="M84.92,5.42c-.18.13-.4.21-.65.21h-2.7c-.59,0-1.06-.44-1.06-.99v-.99c0-.44.31-.82.75-.95-.2-.18-.32-.43-.32-.71,0-.55.48-.99,1.06-.99h2.48c.59,0,1.06.44,1.06.99v.33c0,.52-.45.99-.99.99h-1.4l1.59,1.19.67-1.26h.78l-.89,1.68.96.71h-1.06l-.28-.21ZM84.31,4.97l-2.22-1.66h-.44c-.2,0-.35.15-.35.33v.99c0,.19.14.33.35.33h2.66ZM81.71,2.19l.54.46h2.24c.21,0,.35-.15.35-.33v-.33c0-.19-.16-.33-.35-.33h-2.48c-.2,0-.36.15-.36.33,0,.07.01.15.06.2Z" fill="#fff"/>
      <path d="M91.3,2.98h4.12l-.21.66h-3.9v1.32h4.12v.66h-4.83V.99h4.83v.66h-4.12v1.32Z" fill="#fff"/>
      <path d="M97.4,3.64v1.99h-.71V.99h3.9c.59,0,1.06.44,1.06.99v.66c0,.36-.21.69-.52.86.21.25.52.73.52,1.46v.66h-.71v-.66c0-.53-.43-1.32-.71-1.32h-2.84ZM100.95,1.99c0-.19-.16-.33-.36-.33h-3.19v1.32h3.19c.2,0,.36-.15.36-.33v-.66Z" fill="#fff"/>
      <path d="M103,.99h.71v4.64h-.71V.99Z" fill="#fff"/>
      <path d="M106.19,1.66c-.2,0-.35.15-.35.33v3.64h-.71V1.99c0-.55.48-.99,1.06-.99h2.84c.59,0,1.06.44,1.06.99v3.64h-.71V1.99c0-.19-.16-.33-.36-.33h-2.84Z" fill="#fff"/>
      <path d="M120.03,1.66c-.2,0-.35.15-.35.33v3.64h-.71V1.99c0-.19-.17-.33-.36-.33h-2.84c-.2,0-.35.15-.35.33v3.64h-.71V1.99c0-.55.48-.99,1.06-.99h2.84c.27,0,.52.1.71.25.18-.15.43-.25.71-.25h2.84c.59,0,1.06.44,1.06.99v3.64h-.71V1.99c0-.19-.16-.33-.35-.33h-2.84Z" fill="#fff"/>
      <path d="M125.27,4.97h.71v.66h-.71v-.66Z" fill="#fff"/>
      <path d="M131.23,3.64v1.99h-.71V.99h3.9c.59,0,1.06.44,1.06.99v.66c0,.36-.21.69-.52.86.21.25.52.73.52,1.46v.66h-.71v-.66c0-.53-.43-1.32-.71-1.32h-2.84ZM134.77,1.99c0-.19-.16-.33-.36-.33h-3.19v1.32h3.19c.2,0,.36-.15.36-.33v-.66Z" fill="#fff"/>
      <path d="M136.83.99h.71v4.64h-.71V.99Z" fill="#fff"/>
      <path d="M138.96.99h.71v3.97h3.9v.66h-4.61V.99Z" fill="#fff"/>
      <path d="M145.48,2.98h4.12l-.21.66h-3.9v1.32h4.12v.66h-4.83V.99h4.83v.66h-4.12v1.32Z" fill="#fff"/>
      <path d="M153.64,3.64v1.99h-.71v-1.99h-1.06c-.59,0-1.06-.44-1.06-.99V.99h.71v1.66c0,.19.16.33.35.33h2.84c.2,0,.35-.15.35-.33V.99h.71v1.66c0,.55-.48.99-1.06.99h-1.06Z" fill="#fff"/>
    </g>
  </g>
  <g id="v" isolation="isolate">
    <g id="v-2" data-name="v">
      <rect x="1" y="9.52" width="154.77" height="2.48" fill="#72892d"/>
    </g>
  </g>
</svg>