<?xml version="1.0" encoding="UTF-8"?>
<svg id="Layer_2" data-name="Layer 2" xmlns="http://www.w3.org/2000/svg" viewBox="0 0 155.77 33.17">
  <g id="understory_Image" data-name="understory Image">
    <g>
      <path d="M12,27.17c.56,0,1-.44,1-1v-11h2v11c0,1.66-1.34,3-3,3H4c-1.66,0-3-1.34-3-3v-11h2v11c0,.56.44,1,1,1h8Z" fill="#fff"/>
      <path d="M20,17.17c-.56,0-1,.44-1,1v11h-2v-11c0-1.66,1.34-3,3-3h8c1.66,0,3,1.34,3,3v11h-2v-11c0-.56-.44-1-1-1h-8Z" fill="#fff"/>
      <path d="M47,26.17c0,1.66-1.34,3-3,3h-11v-14h11c1.66,0,3,1.34,3,3v8ZM45,18.17c0-.56-.44-1-1-1h-9v10h9c.56,0,1-.44,1-1v-8Z" fill="#fff"/>
      <path d="M50.8,21.17h11.6l-.6,2h-11v4h11.6v2h-13.6v-14h13.6v2h-11.6v4Z" fill="#fff"/>
      <path d="M66,23.17v6h-2v-14h11c1.66,0,3,1.34,3,3v2c0,1.1-.6,2.08-1.48,2.6.58.74,1.48,2.22,1.48,4.4v2h-2v-2c0-1.6-1.2-4-2-4h-8ZM76,18.17c0-.56-.44-1-1-1h-9v4h9c.56,0,1-.44,1-1v-2Z" fill="#fff"/>
      <path d="M81.4,18.97c0,2.2,12.2,2.3,12.2,6v1.2c0,1.66-1.34,3-3,3h-10.6l-.6-2h11.2c.56,0,1-.44,1-1v-.8c0-2.2-12.2-2.1-12.2-6v-1.2c0-1.66,1.34-3,3-3h10.6l.6,2h-11.2c-.56,0-1,.44-1,1v.8Z" fill="#fff"/>
      <path d="M94.6,15.17h14v2h-6v12h-2v-12h-6v-2Z" fill="#fff"/>
      <path d="M112.8,29.17c-1.66,0-3-1.34-3-3v-8c0-1.66,1.34-3,3-3h8c1.66,0,3,1.34,3,3v8c0,1.66-1.34,3-3,3h-8ZM120.8,27.17c.56,0,1-.44,1-1v-8c0-.56-.44-1-1-1h-8c-.56,0-1,.44-1,1v8c0,.56.44,1,1,1h8Z" fill="#fff"/>
      <path d="M127.6,23.17v6h-2v-14h11c1.66,0,3,1.34,3,3v2c0,1.1-.6,2.08-1.48,2.6.58.74,1.48,2.22,1.48,4.4v2h-2v-2c0-1.6-1.2-4-2-4h-8ZM137.6,18.17c0-.56-.44-1-1-1h-9v4h9c.56,0,1-.44,1-1v-2Z" fill="#fff"/>
      <path d="M149.2,23.17v6h-2v-6h-3c-1.66,0-3-1.34-3-3v-5h2v5c0,.56.44,1,1,1h8c.56,0,1-.44,1-1v-5h2v5c0,1.66-1.34,3-3,3h-3Z" fill="#fff"/>
    </g>
    <g>
      <path d="M1.41,1.23h.82v4.91h4.5v.82H1.41V1.23Z" fill="#fff"/>
      <path d="M8.44,6.95c-.68,0-1.23-.55-1.23-1.23v-3.27c0-.68.55-1.23,1.23-1.23h3.27c.68,0,1.23.55,1.23,1.23v3.27c0,.68-.55,1.23-1.23,1.23h-3.27ZM11.72,6.14c.23,0,.41-.18.41-.41v-3.27c0-.23-.18-.41-.41-.41h-3.27c-.23,0-.41.18-.41.41v3.27c0,.23.18.41.41.41h3.27Z" fill="#fff"/>
      <path d="M18.18,6.14c.23,0,.41-.18.41-.41V1.23h.82v4.5c0,.68-.55,1.23-1.23,1.23h-3.27c-.68,0-1.23-.55-1.23-1.23V1.23h.82v4.5c0,.23.18.41.41.41h3.27Z" fill="#fff"/>
      <path d="M23.09,1.23h4.5c.68,0,1.23.55,1.23,1.23v.74c0,.32-.12.6-.31.82.19.22.31.51.31.82v.9c0,.68-.55,1.23-1.23,1.23h-4.5V1.23ZM27.59,3.6c.23,0,.41-.18.41-.41v-.74c0-.23-.18-.41-.41-.41h-3.68v1.55h3.68ZM23.91,4.42v1.72h3.68c.23,0,.41-.18.41-.41v-.9c0-.23-.18-.41-.41-.41h-3.68Z" fill="#fff"/>
      <path d="M30.37,4.5v2.45h-.82V1.23h4.5c.68,0,1.23.55,1.23,1.23v.82c0,.45-.25.85-.61,1.06.24.3.61.91.61,1.8v.82h-.82v-.82c0-.65-.49-1.64-.82-1.64h-3.27ZM34.46,2.46c0-.23-.18-.41-.41-.41h-3.68v1.64h3.68c.23,0,.41-.18.41-.41v-.82Z" fill="#fff"/>
      <path d="M36.83,3.68h4.74l-.25.82h-4.5v1.64h4.74v.82h-5.56V1.23h5.56v.82h-4.74v1.64Z" fill="#fff"/>
      <path d="M42.23,1.23h.82v5.73h-.82V1.23Z" fill="#fff"/>
      <path d="M45.09,2.05c-.23,0-.41.18-.41.41v4.5h-.82V2.46c0-.68.55-1.23,1.23-1.23h3.27c.68,0,1.23.55,1.23,1.23v4.5h-.82V2.46c0-.23-.18-.41-.41-.41h-3.27Z" fill="#fff"/>
      <path d="M50.41,1.23h.82v5.73h-.82V1.23Z" fill="#fff"/>
      <path d="M53.27,2.05c-.23,0-.41.18-.41.41v4.5h-.82V2.46c0-.68.55-1.23,1.23-1.23h3.27c.68,0,1.23.55,1.23,1.23v4.5h-.82V2.46c0-.23-.18-.41-.41-.41h-3.27Z" fill="#fff"/>
      <path d="M59.74,6.95c-.68,0-1.23-.55-1.23-1.23v-3.27c0-.68.55-1.23,1.23-1.23h4.25l.25.82h-4.5c-.23,0-.41.18-.41.41v3.27c0,.23.18.41.41.41h3.68v-2.45h.82v3.27h-4.5Z" fill="#fff"/>
      <path d="M65.87,3.68h4.74l-.25.82h-4.5v1.64h4.74v.82h-5.56V1.23h5.56v.82h-4.74v1.64Z" fill="#fff"/>
      <path d="M72.09,4.5v2.45h-.82V1.23h4.5c.68,0,1.23.55,1.23,1.23v.82c0,.45-.25.85-.61,1.06.24.3.61.91.61,1.8v.82h-.82v-.82c0-.65-.49-1.64-.82-1.64h-3.27ZM76.18,2.46c0-.23-.18-.41-.41-.41h-3.68v1.64h3.68c.23,0,.41-.18.41-.41v-.82Z" fill="#fff"/>
      <path d="M85.51,6.7c-.21.16-.47.25-.74.25h-3.11c-.68,0-1.23-.55-1.23-1.23v-1.23c0-.55.36-1.01.86-1.17-.23-.22-.37-.53-.37-.88,0-.68.55-1.23,1.23-1.23h2.86c.68,0,1.23.55,1.23,1.23v.41c0,.65-.52,1.23-1.15,1.23h-1.62l1.83,1.47.77-1.55h.9l-1.02,2.07,1.1.88h-1.23l-.32-.25ZM84.81,6.14l-2.56-2.04h-.51c-.23,0-.41.18-.41.41v1.23c0,.23.16.41.41.41h3.07ZM81.81,2.7l.62.57h2.58c.25,0,.41-.18.41-.41v-.41c0-.23-.18-.41-.41-.41h-2.86c-.23,0-.41.18-.41.41,0,.09.02.19.07.25Z" fill="#fff"/>
      <path d="M91.23,3.68h4.74l-.25.82h-4.5v1.64h4.74v.82h-5.56V1.23h5.56v.82h-4.74v1.64Z" fill="#fff"/>
      <path d="M97.45,4.5v2.45h-.82V1.23h4.5c.68,0,1.23.55,1.23,1.23v.82c0,.45-.25.85-.6,1.06.24.3.6.91.6,1.8v.82h-.82v-.82c0-.65-.49-1.64-.82-1.64h-3.27ZM101.54,2.46c0-.23-.18-.41-.41-.41h-3.68v1.64h3.68c.23,0,.41-.18.41-.41v-.82Z" fill="#fff"/>
      <path d="M103.09,1.23h.82v5.73h-.82V1.23Z" fill="#fff"/>
      <path d="M105.95,2.05c-.23,0-.41.18-.41.41v4.5h-.82V2.46c0-.68.55-1.23,1.23-1.23h3.27c.68,0,1.23.55,1.23,1.23v4.5h-.82V2.46c0-.23-.18-.41-.41-.41h-3.27Z" fill="#fff"/>
      <path d="M120.27,2.05c-.23,0-.41.18-.41.41v4.5h-.82V2.46c0-.23-.2-.41-.41-.41h-3.27c-.23,0-.41.18-.41.41v4.5h-.82V2.46c0-.68.55-1.23,1.23-1.23h3.27c.31,0,.6.12.82.31.21-.19.5-.31.82-.31h3.27c.68,0,1.23.55,1.23,1.23v4.5h-.82V2.46c0-.23-.18-.41-.41-.41h-3.27Z" fill="#fff"/>
      <path d="M125.5,6.14h.82v.82h-.82v-.82Z" fill="#fff"/>
      <path d="M130.73,4.5v2.45h-.82V1.23h4.5c.68,0,1.23.55,1.23,1.23v.82c0,.45-.25.85-.61,1.06.24.3.61.91.61,1.8v.82h-.82v-.82c0-.65-.49-1.64-.82-1.64h-3.27ZM134.82,2.46c0-.23-.18-.41-.41-.41h-3.68v1.64h3.68c.23,0,.41-.18.41-.41v-.82Z" fill="#fff"/>
      <path d="M136.38,1.23h.82v5.73h-.82V1.23Z" fill="#fff"/>
      <path d="M138.01,1.23h.82v4.91h4.5v.82h-5.32V1.23Z" fill="#fff"/>
      <path d="M144.72,3.68h4.74l-.25.82h-4.5v1.64h4.74v.82h-5.56V1.23h5.56v.82h-4.74v1.64Z" fill="#fff"/>
      <path d="M153.31,4.5v2.45h-.82v-2.45h-1.23c-.68,0-1.23-.55-1.23-1.23V1.23h.82v2.04c0,.23.18.41.41.41h3.27c.23,0,.41-.18.41-.41V1.23h.82v2.04c0,.68-.55,1.23-1.23,1.23h-1.23Z" fill="#fff"/>
    </g>
  </g>
  <g id="v" isolation="isolate">
    <g id="v-2" data-name="v">
      <rect x="1" y="9.52" width="154.77" height="2.48" fill="#72892d"/>
    </g>
  </g>
</svg>