<?xml version="1.0" encoding="UTF-8"?>
<svg id="Layer_1" data-name="Layer 1" xmlns="http://www.w3.org/2000/svg" viewBox="0 0 1586.82 395">
  <rect width="1586.82" height="395" fill="#3d3d3d"/>
  <path d="M843.09,331.77h-77.84V59.31h77.84c21.48.04,38.88,17.45,38.92,38.93v59.55c0,15.57-7.39,26.07-19.46,29.58v.78c12.07,3.5,19.46,14,19.46,29.58v75.12c-.04,21.48-17.44,38.88-38.92,38.92ZM862.55,159.34v-62.69c.11-10.64-8.44-19.35-19.08-19.46-.13,0-.25,0-.38,0h-58.39v101.61h58.38c10.64.11,19.36-8.43,19.47-19.07,0-.13,0-.26,0-.39h0ZM862.55,294.4v-78.23c.11-10.64-8.44-19.35-19.08-19.46-.13,0-.25,0-.38,0h-58.39v117.15h58.38c10.64.11,19.36-8.43,19.47-19.07,0-.13,0-.26,0-.39h0Z" fill="#fff"/>
  <path d="M902.64,103.65c0-7.09,5.75-12.84,12.84-12.84,7.09,0,12.84,5.75,12.84,12.84s-5.75,12.84-12.84,12.84c-7.06-.09-12.75-5.78-12.84-12.84ZM906.14,331.73v-182.9h17.56v182.94l-17.56-.04Z" fill="#fff"/>
  <path d="M1030.7,331.77v-17.52h-.78c-3.89,11.68-13.23,17.52-28,17.52h-18.72c-19.24-.21-34.79-15.76-35-35v-112.91c.21-19.24,15.76-34.79,35-35h18.69c15.17,0,24.5,5.84,28,17.52h.81l-.78-17.52V59.31h17.51v272.46h-16.73ZM1029.92,298.3v-116c.04-9.64-7.74-17.48-17.38-17.52-.05,0-.09,0-.14,0h-29.2c-9.63.1-17.41,7.9-17.5,17.53v116c.1,9.63,7.88,17.41,17.51,17.51h29.19c9.63.04,17.47-7.74,17.51-17.37,0-.05,0-.1,0-.15h0Z" fill="#fff"/>
  <path d="M164.4,331.77L106.02,59.32h60.68l30.78,168.53,1.17,9.73,1.17-9.73,30.75-168.53h60.71l-58.38,272.45h-68.5Z" fill="#fff"/>
  <path d="M331.76,261.71v20.24c-.1.54.25,1.07.79,1.17.12.02.25.02.38,0h67.77v48.65h-84.12c-23,0-37.37-15.18-37.37-37.36v-109c0-22.19,14.41-37.37,37.37-37.37h59.55c22.18,0,37.36,15.18,37.36,37.37v76.28l-81.73.02ZM360.95,194.77c.1-.54-.25-1.07-.79-1.17-.12-.02-.25-.02-.38,0h-26.85c-.54-.1-1.07.25-1.17.79-.02.12-.02.25,0,.38v31.88h29.19v-31.88Z" fill="#fff"/>
  <path d="M489.39,197.49c-.54-.1-1.07.25-1.17.79-.02.12-.02.25,0,.38v133.11h-52.52v-182.93h51.76v17.91h.78c2.72-12.07,16.35-18.69,30.36-18.69h16.35v49.43h-45.56Z" fill="#fff"/>
  <path d="M606.54,331.77c-22.19,0-37.37-15.18-37.37-37.36v-96.92h-27.24v-48.65h27.24v-54.49h52.53v54.49h35v48.65h-35v84.46c-.1.54.25,1.07.8,1.17.12.02.24.02.36,0h33.87v48.65h-50.19Z" fill="#fff"/>
  <path d="M677.37,331.77v-182.93h52.55v182.93h-52.55Z" fill="#fff"/>
  <line x1="686.43" y1="159.23" x2="686.43" y2="307.89" fill="none" stroke="#000" stroke-miterlimit="10"/>
  <line x1="692.07" y1="159.23" x2="692.07" y2="307.89" fill="none" stroke="#000" stroke-miterlimit="10"/>
  <line x1="697.03" y1="159.23" x2="697.03" y2="307.89" fill="none" stroke="#000" stroke-miterlimit="10"/>
  <line x1="701.98" y1="159.23" x2="701.98" y2="307.89" fill="none" stroke="#000" stroke-miterlimit="10"/>
  <line x1="706.94" y1="159.23" x2="706.94" y2="307.89" fill="none" stroke="#000" stroke-miterlimit="10"/>
  <line x1="711.89" y1="159.23" x2="711.89" y2="307.89" fill="none" stroke="#000" stroke-miterlimit="10"/>
  <line x1="716.85" y1="159.23" x2="716.85" y2="307.89" fill="none" stroke="#000" stroke-miterlimit="10"/>
  <line x1="721.8" y1="159.23" x2="721.8" y2="307.89" fill="none" stroke="#000" stroke-miterlimit="10"/>
  <rect x="685.14" y="145.02" width="11.98" height="5.27" fill="#fff"/>
  <rect x="711.03" y="134.52" width="6.81" height="14.63" fill="#fff"/>
  <rect x="702.98" y="143.09" width="17.82" height="5.94" fill="#fff"/>
  <polygon points="674.37 115.06 736.79 115.06 734.06 118.94 677.2 118.48 674.37 115.06" fill="#40853e"/>
  <polygon points="674.37 115.06 736.79 115.06 705.58 67.46 674.37 115.06" fill="#5ebb47"/>
  <polygon points="1285.83 277.14 1462.92 277.14 1374.37 142.09 1285.83 277.14" fill="#5ebb47"/>
  <polygon points="1321.61 142.6 1144.53 142.6 1233.07 277.64 1321.61 142.6" fill="#595959"/>
</svg>