<?xml version="1.0" encoding="UTF-8"?>
<svg id="Layer_1" data-name="Layer 1" xmlns="http://www.w3.org/2000/svg" viewBox="0 0 965.53 286.43">
  <path d="M744.39,281.12h-77.84V8.66h77.84c21.48.04,38.88,17.45,38.92,38.93v59.55c0,15.57-7.39,26.07-19.46,29.58v.78c12.07,3.5,19.46,14,19.46,29.58v75.12c-.04,21.48-17.44,38.88-38.92,38.92ZM763.85,108.69v-62.69c.11-10.64-8.44-19.35-19.08-19.46-.13,0-.25,0-.38,0h-58.39v101.61h58.38c10.64.11,19.36-8.43,19.47-19.07,0-.13,0-.26,0-.39h0ZM763.85,243.75v-78.23c.11-10.64-8.44-19.35-19.08-19.46-.13,0-.25,0-.38,0h-58.39v117.15h58.38c10.64.11,19.36-8.43,19.47-19.07,0-.13,0-.26,0-.39h0Z" fill="#fff"/>
  <path d="M803.94,53c0-7.09,5.75-12.84,12.84-12.84,7.09,0,12.84,5.75,12.84,12.84s-5.75,12.84-12.84,12.84c-7.06-.09-12.75-5.78-12.84-12.84ZM807.44,281.08V98.18h17.56v182.94l-17.56-.04Z" fill="#fff"/>
  <path d="M932,281.12v-17.52h-.78c-3.89,11.68-13.23,17.52-28,17.52h-18.72c-19.24-.21-34.79-15.76-35-35v-112.91c.21-19.24,15.76-34.79,35-35h18.69c15.17,0,24.5,5.84,28,17.52h.81l-.78-17.52V8.66h17.51v272.46h-16.73ZM931.22,247.65v-116c.04-9.64-7.74-17.48-17.38-17.52-.05,0-.09,0-.14,0h-29.2c-9.63.1-17.41,7.9-17.5,17.53v116c.1,9.63,7.88,17.41,17.51,17.51h29.19c9.63.04,17.47-7.74,17.51-17.37,0-.05,0-.1,0-.15h0Z" fill="#fff"/>
  <path d="M65.7,281.12L7.32,8.67h60.68l30.78,168.53,1.17,9.73,1.17-9.73L131.87,8.67h60.71l-58.38,272.45h-68.5Z" fill="#fff"/>
  <path d="M233.06,211.06v20.24c-.1.54.25,1.07.79,1.17.12.02.25.02.38,0h67.77v48.65h-84.12c-23,0-37.37-15.18-37.37-37.36v-109c0-22.19,14.41-37.37,37.37-37.37h59.55c22.18,0,37.36,15.18,37.36,37.37v76.28l-81.73.02ZM262.25,144.12c.1-.54-.25-1.07-.79-1.17-.12-.02-.25-.02-.38,0h-26.85c-.54-.1-1.07.25-1.17.79-.02.12-.02.25,0,.38v31.88h29.19v-31.88Z" fill="#fff"/>
  <path d="M390.69,146.84c-.54-.1-1.07.25-1.17.79-.02.12-.02.25,0,.38v133.11h-52.52V98.19h51.76v17.91h.78c2.72-12.07,16.35-18.69,30.36-18.69h16.35v49.43h-45.56Z" fill="#fff"/>
  <path d="M507.84,281.12c-22.19,0-37.37-15.18-37.37-37.36v-96.92h-27.24v-48.65h27.24v-54.49h52.53v54.49h35v48.65h-35v84.46c-.1.54.25,1.07.8,1.17.12.02.24.02.36,0h33.87v48.65h-50.19Z" fill="#fff"/>
  <path d="M578.67,281.12V98.19h52.55v182.93h-52.55Z" fill="#fff"/>
  <line x1="587.73" y1="108.58" x2="587.73" y2="257.24" fill="none" stroke="#000" stroke-miterlimit="10"/>
  <line x1="593.37" y1="108.58" x2="593.37" y2="257.24" fill="none" stroke="#000" stroke-miterlimit="10"/>
  <line x1="598.33" y1="108.58" x2="598.33" y2="257.24" fill="none" stroke="#000" stroke-miterlimit="10"/>
  <line x1="603.28" y1="108.58" x2="603.28" y2="257.24" fill="none" stroke="#000" stroke-miterlimit="10"/>
  <line x1="608.24" y1="108.58" x2="608.24" y2="257.24" fill="none" stroke="#000" stroke-miterlimit="10"/>
  <line x1="613.19" y1="108.58" x2="613.19" y2="257.24" fill="none" stroke="#000" stroke-miterlimit="10"/>
  <line x1="618.15" y1="108.58" x2="618.15" y2="257.24" fill="none" stroke="#000" stroke-miterlimit="10"/>
  <line x1="623.1" y1="108.58" x2="623.1" y2="257.24" fill="none" stroke="#000" stroke-miterlimit="10"/>
  <rect x="586.44" y="94.37" width="11.98" height="5.27" fill="#fff"/>
  <rect x="612.33" y="83.87" width="6.81" height="14.63" fill="#fff"/>
  <rect x="604.28" y="92.44" width="17.82" height="5.94" fill="#fff"/>
  <polygon points="575.67 64.41 638.09 64.41 635.36 68.29 578.5 67.83 575.67 64.41" fill="#40853e"/>
  <polygon points="575.67 64.41 638.09 64.41 606.88 16.81 575.67 64.41" fill="#5ebb47"/>
</svg>