<?xml version="1.0" encoding="UTF-8"?>
<svg id="Layer_1" data-name="Layer 1" xmlns="http://www.w3.org/2000/svg" viewBox="0 0 809.02 809.02">
  <circle cx="404.51" cy="404.51" r="386.21" fill="#3d3d3d" stroke="#fff" stroke-miterlimit="10"/>
  <path d="M583.95,486.94h-51.28v-179.5h51.28c14.15.03,25.61,11.5,25.64,25.65v39.23c0,10.26-4.87,17.17-12.82,19.49v.51c7.95,2.31,12.82,9.22,12.82,19.49v49.49c-.03,14.15-11.49,25.61-25.64,25.64ZM596.77,373.34v-41.3c.07-7.01-5.56-12.75-12.57-12.82-.08,0-.17,0-.25,0h-38.47v66.94h38.46c7.01.07,12.75-5.55,12.83-12.56,0-.09,0-.17,0-.26h0ZM596.77,462.32v-51.54c.07-7.01-5.56-12.75-12.57-12.82-.08,0-.17,0-.25,0h-38.47v77.18h38.46c7.01.07,12.75-5.55,12.83-12.56,0-.09,0-.17,0-.26h0Z" fill="#fff"/>
  <path d="M623.19,336.65c0-4.67,3.79-8.46,8.46-8.46,4.67,0,8.46,3.79,8.46,8.46s-3.79,8.46-8.46,8.46c-4.65-.06-8.4-3.81-8.46-8.46ZM625.49,486.91v-120.49h11.57v120.52l-11.57-.03Z" fill="#fff"/>
  <path d="M707.55,486.94v-11.54h-.51c-2.56,7.69-8.71,11.54-18.45,11.54h-12.33c-12.68-.14-22.92-10.38-23.06-23.06v-74.38c.14-12.68,10.38-22.92,23.06-23.06h12.31c9.99,0,16.14,3.85,18.45,11.54h.53l-.51-11.54v-59h11.54v179.5h-11.02ZM707.04,464.89v-76.42c.03-6.35-5.1-11.52-11.45-11.54-.03,0-.06,0-.09,0h-19.24c-6.35.07-11.47,5.2-11.53,11.55v76.42c.06,6.34,5.19,11.47,11.54,11.54h19.23c6.35.03,11.51-5.1,11.54-11.44,0-.03,0-.07,0-.1h0Z" fill="#fff"/>
  <path d="M136.84,486.94l-38.46-179.49h39.98l20.28,111.03.77,6.41.77-6.41,20.26-111.03h40l-38.46,179.49h-45.13Z" fill="#fff"/>
  <path d="M247.09,440.78v13.33c-.07.36.17.7.52.77.08.02.17.02.25,0h44.65v32.05h-55.42c-15.15,0-24.62-10-24.62-24.61v-71.81c0-14.62,9.49-24.62,24.62-24.62h39.23c14.61,0,24.61,10,24.61,24.62v50.25h-53.84ZM266.32,396.68c.07-.36-.17-.7-.52-.77-.08-.02-.17-.02-.25,0h-17.69c-.36-.07-.7.17-.77.52-.02.08-.02.17,0,.25v21h19.23v-21Z" fill="#fff"/>
  <path d="M350.94,398.47c-.36-.07-.7.17-.77.52-.02.08-.02.17,0,.25v87.69h-34.6v-120.51h34.1v11.8h.51c1.79-7.95,10.77-12.31,20-12.31h10.77v32.56h-30.01Z" fill="#fff"/>
  <path d="M428.12,486.94c-14.62,0-24.62-10-24.62-24.61v-63.85h-17.95v-32.05h17.95v-35.9h34.61v35.9h23.06v32.05h-23.06v55.64c-.07.36.17.7.52.77.08.01.16.02.24,0h22.31v32.05h-33.06Z" fill="#fff"/>
  <path d="M474.78,486.94v-120.51h34.62v120.51h-34.62Z" fill="#fff"/>
  <line x1="480.75" y1="373.27" x2="480.75" y2="471.21" fill="none" stroke="#010101" stroke-miterlimit="10"/>
  <line x1="484.46" y1="373.27" x2="484.46" y2="471.21" fill="none" stroke="#010101" stroke-miterlimit="10"/>
  <line x1="487.73" y1="373.27" x2="487.73" y2="471.21" fill="none" stroke="#010101" stroke-miterlimit="10"/>
  <line x1="490.99" y1="373.27" x2="490.99" y2="471.21" fill="none" stroke="#010101" stroke-miterlimit="10"/>
  <line x1="494.26" y1="373.27" x2="494.26" y2="471.21" fill="none" stroke="#010101" stroke-miterlimit="10"/>
  <line x1="497.52" y1="373.27" x2="497.52" y2="471.21" fill="none" stroke="#010101" stroke-miterlimit="10"/>
  <line x1="500.79" y1="373.27" x2="500.79" y2="471.21" fill="none" stroke="#010101" stroke-miterlimit="10"/>
  <line x1="504.05" y1="373.27" x2="504.05" y2="471.21" fill="none" stroke="#010101" stroke-miterlimit="10"/>
  <rect x="479.9" y="363.91" width="7.89" height="3.47" fill="#fff"/>
  <rect x="496.95" y="356.99" width="4.49" height="9.64" fill="#fff"/>
  <rect x="491.65" y="362.64" width="11.74" height="3.91" fill="#fff"/>
  <polygon points="472.8 344.17 513.92 344.17 512.13 346.73 474.67 346.42 472.8 344.17" fill="#41863f"/>
  <polygon points="472.8 344.17 513.92 344.17 493.36 312.81 472.8 344.17" fill="#60bb48"/>
  <polygon points="304.65 243.43 519.08 243.43 411.86 79.9 304.65 243.43" fill="#60bb48"/>
  <polygon points="528.58 577.95 314.15 577.95 421.37 741.47 528.58 577.95" fill="#595a5a"/>
</svg>