
<svg id="Layer_2" data-name="Layer 2" xmlns="http://www.w3.org/2000/svg" viewBox="0 0 241.32 241.32">
  <g id="Layer_1-2" data-name="Layer 1">
    <polygon points="110.57 34.04 133.82 0 149.19 38.25 184.91 17.67 182.17 58.8 223.28 55.76 202.95 91.63 241.32 106.72 207.44 130.22 235.46 160.46 194.74 166.94 206.86 206.34 167.37 194.51 161.19 235.27 130.75 207.47 107.49 241.51 92.12 203.26 56.4 223.84 59.15 182.71 18.04 185.75 38.36 149.89 0 134.79 33.87 111.3 5.86 81.05 46.57 74.58 34.45 35.17 73.95 47.01 80.12 6.25 110.57 34.04" fill="#e29805"/>
    <g>
      <path d="M84.37,123.06c-.47-2.94,1.81-5.33,4.83-5.81,3.45-.55,6.57,1.26,7.22,5.31,1.3,8.2-3.38,22.13-14.6,23.92-5.78.92-9.89-1.53-11.57-3.74-1.23,1.7-4.57,6.3-11.74,7.44-5.01.8-8.78-1.79-9.38-5.59-.91-5.7,1.15-11.16.54-14.95-.23-1.47-.78-1.56-.96-2.68-.3-1.9,5.36-4.13,10.37-4.92,1.9-.3,3.06.31,3.29,1.78.6,3.8-1.43,9.96-.55,15.49.33,2.07,1.24,2.81,2.62,2.59,1.55-.25,2.44-1.36,3.26-3.97,1.01-3.08,1.18-8.15.69-11.26-.23-1.47-.87-1.54-1.04-2.67-.3-1.9,5.36-4.13,10.37-4.92,1.9-.3,3.06.31,3.29,1.78.6,3.8-1.21,10.19-.37,15.46.33,2.07,1.83,2.63,3.22,2.41,2.5-.4,4.78-5.54,4.04-10.2-.4-2.5-3.04-2.44-3.52-5.46Z" fill="#fff"/>
      <path d="M128.19,121.49c1.54,9.67-2.65,18.39-14.13,20.21-7.6,1.21-14.08-2.28-15.18-9.18-1.33-8.37,4.42-17.87,16.24-19.75,7.25-1.15,12.12,2.76,13.07,8.72ZM119.09,124.35c-2.84-.61-3.58-1.38-3.8-2.76-.32-1.99.91-3.15.82-3.76-.05-.34-.25-.49-.69-.42-.35.05-1.33.56-2.28,1.78-1.55,1.93-2.31,4.97-1.53,9.89.62,3.88,2.36,5.91,5.46,5.42,3.19-.51,4.74-4.12,4.26-7.14-.23-1.47-.96-2.68-2.25-3Z" fill="#fff"/>
      <path d="M143.6,134.35c.23,1.47-.32,1.91-1.61,2.12-2.59.41-7.1,1.57-8.39,1.78-1.12.18-1.88-.14-2.12-1.61-.51-3.19,1.26-15.42.52-20.08-.23-1.47-.86-1.54-1.04-2.67-.3-1.9,5.36-4.13,10.37-4.92,1.9-.3,3.06.31,3.29,1.78.15.95.16,2.1.16,2.1,0,0,2.65-4.49,7.05-5.19,2.42-.38,4.64.77,5.05,3.36.49,3.11-1.01,6.98-4.55,7.54-2.68.43-4.5-1.59-4.73-3.05-.49.25-1.4,1.2-2.25,3.63-1.19,3.11-2.27,11.87-1.74,15.23Z" fill="#fff"/>
      <path d="M189.34,120.35c.51-.7.81-1.01,1.33-1.1.78-.12,1.32.5,1.4,1.02.15.95-.26,1.72-.94,2.98-1.51,2.72-4.71,6.59-9.62,7.37-6.3,1-10.35-5.52-10.88-8.89,0,0-.72,6.57-.44,8.39.23,1.47-.23,1.9-1.52,2.1-2.59.41-7.27,1.6-8.65,1.82-1.04.16-1.71-.17-1.94-1.64-1.19-7.51,3.52-26.84,1.48-39.7-.45-2.85-1.71-4.07-3.52-3.78-.78.12-1.35-.14-1.46-.83-.29-1.81,4.26-5.46,9.18-6.24,4.58-.73,8.15,1.18,8.84,5.5.86,5.44-2.33,24.89-1.78,28.34,1.99-.32,4.73-3.67,4.45-5.4-.15-.95-.78-1.03-.92-1.89-.29-1.81,5.49-5.56,9.46-6.2,1.73-.27,3.04.22,3.25,1.52.58,3.63-3.01,8.89-8.84,13.44,1.25,3.43,4.81,5.78,7.83,5.3,1.55-.25,2.35-.82,3.29-2.12Z" fill="#fff"/>
    </g>
  </g>
</svg>
